<ttFont>
          <CharString index="0">
            -46 -55.99000549316406 -76 callgsubr
            -10.009994506835938 -22 hhcurveto
            -27 -12 24 52 6.9900054931640625 hvcurveto
            127.02000427246094 945.0099945068359 521 callgsubr
            105 callgsubr
            -893.0099945068359 rlineto
            -41 callgsubr
            -54.99000549316406 -83 -61 -86 hhcurveto
            -75 -41 35 44 callsubr
            76.99000549316406 18.990005493164062 109.02000427246094 15.009994506835938 -52 callgsubr
            hvcurveto
            69 550.0200042724609 -50 24 -333 -41 -16 -89 112.99000549316406 -71 return
          </CharString>
          <CharString index="1">
            -107 callsubr
            -52 -365 rlineto
            return
          </CharString>
          <CharString index="2">
            rmoveto
            79 callsubr
            343 callsubr
            44 callgsubr
            -199 -234 -111 -137 -7 rrcurveto
            178 15.009994506835938 75 283.00999450683594 176 hhcurveto
            433 callsubr
          </CharString>
          <CharString index="3">
            rmoveto
            -677.9900054931641 -1396 -130 -29 130 callsubr
            520 hlineto
            6.9900054931640625 131 callgsubr
            30 133.02000427246094 297.97999572753906 rlineto
            523 hlineto
            43.99000549316406 -298.99000549316406 -156 -29 -5 -93 callgsubr
            609 107 callgsubr
            -159 -34 callgsubr
            -250 1393.009994506836 rlineto
            283 callsubr
            hlineto
            -270.00999450683594 -959 rmoveto
            342 765.9900054931641 10.020004272460938 -159 53 callsubr
            -606.9900054931641 rlineto
            -441 hlineto
            endchar
          </CharString>
          <CharString index="4">
            355 204.97999572753906 200.99000549316406 261 65 callsubr
            -2 206 -154 123 -164.99000549316406 104 rrcurveto
            -171 114 callgsubr
            -100 89.00999450683594 -37 callsubr
            vvcurveto
            128 110 69.02000427246094 134 73.00999450683594 54 -19 -32 43.99000549316406 vhcurveto
            29 -190 rlineto
            154 hlineto
            50 285 rlineto
            37 -60 -117 41 -205.99000549316406 hhcurveto
            -298 -234 -162.02000427246094 -269.97999572753906 341 callsubr
            1 -212 159.99000549316406 -134 171 -107.99000549316406 163.97999572753906 -104 93.02999877929688 -1 callsubr
            -4.0200042724609375 132 callgsubr
            rrcurveto
            -143 -4 -118 -80 -167 hhcurveto
            -87 -71 30 37 -70 callgsubr
            hvcurveto
            -16.020004272460938 204 rlineto
            return
          </CharString>
          <CharString index="5">
            -74 callsubr
            hintmask 10110000
            -100 callgsubr
            hintmask 01110000
            19 -59 -88 -27 callgsubr
            196 callgsubr
            -99 callsubr
          </CharString>
          <CharString index="6">
            49 callsubr
            604 hlineto
            8 98 -166.99000549316406 29 162.97999572753906 1263.990005493164 164 172 callsubr
            -588 hlineto
            -11.990005493164062 -106 63 callsubr
            50 callgsubr
            98 callgsubr
            return
          </CharString>
          <CharString index="7">
            rmoveto
            -476.02000427246094 -350 -347.00999450683594 -559.9900054931641 5.0200042724609375 hvcurveto
            -333 -79 callsubr
            154 -315.97999572753906 413 hhcurveto
            264.99000549316406 147 77.97999572753906 45 73 hvcurveto
            42 305.00999450683594 rlineto
            74 callsubr
            -49 callgsubr
            47 64 callsubr
            -18 38 295 callgsubr
            -287 493 callgsubr
            64 386 -36 10 rlineto
            17 -68 -85.00999450683594 30 -203.97999572753906 hhcurveto
            endchar
          </CharString>
          <CharString index="8">
            -29.979995727539062 -896 rmoveto
            -65 -55 -77 -62 -77.99000549316406 hhcurveto
            32 callgsubr
            105 178 257 -42 callsubr
            350.99000549316406 262 35 33 -3.9900054931640625 -10 29 hvcurveto
            -99.99000549316406 -750 rlineto
            endchar
          </CharString>
          <CharString index="9">
            rmoveto
            -478 -272 -419.99000549316406 -493.02000427246094 4 hvcurveto
            -360 3 162 -288.97999572753906 379 hhcurveto
            258 callsubr
            258 433 488 -4.0200042724609375 hvcurveto
            344 -72 callgsubr
            -157 296.97999572753906 -384 hhcurveto
            239 138 callgsubr
            4 -155 460 callsubr
            -202.02000427246094 -65.99000549316406 260 287 -3 hvcurveto
            282 callgsubr
            -72 callgsubr
            434 callsubr
            254 517 callgsubr
            endchar
          </CharString>
          <CharString index="10">
            -61 callgsubr
            -120.00999450683594 -31 -162 -76 callgsubr
            -111 rrcurveto
            328 callsubr
            -86.02000427246094 -72 callgsubr
            35 -67.97000122070312 136 hhcurveto
            150 98 108.97000122070312 27.020004272460938 19 313 callgsubr
            -36 -48 -21.009994506835938 -10 368 callsubr
            -76 callgsubr
            -12 16 48 1 hvcurveto
            2 87 24 18 callgsubr
            hintmask 11010000
            -50 callgsubr
            187 callgsubr
            30 166 78 25 callgsubr
            -153 -140 133 callgsubr
            -133 -58 callsubr
            vhcurveto
            17 207.02000427246094 -50 24 137 callsubr
            103 -59 rlineto
            endchar
          </CharString>
          <CharString index="11">
            rmoveto
            202 -1400.9700012207031 rlineto
            260 hlineto
            389.02000427246094 970.9700012207031 43 callgsubr
            -970.9700012207031 492 callsubr
            629 1401.9700012207031 142 88 callsubr
            12 105 rlineto
            -518 hlineto
            -11 -106 185 -72 callsubr
            -389 -929.0200042724609 -81.02000427246094 -216.99000549316406 -11 233 -93 913.9900054931641 149 25 36 callsubr
            106 rlineto
            -576.9900054931641 193 callsubr
            -105 141 -24 220 callgsubr
            -135 -323.00999450683594 -809.9799957275391 -69 -204 -28 233 -104 913.9900054931641 145 25 -45 callgsubr
            106 rlineto
            -559 hlineto
            -12.979995727539062 -105 221 callgsubr
            127 callsubr
          </CharString>
          <CharString index="12">
            rmoveto
            hintmask 01111100
            -237.02000427246094 113 callsubr
            -183.99000549316406 232 169 136.99000549316406 284 callgsubr
            126 75 vhcurveto
            hintmask 10111100
            -166 42 118 -115.99000549316406 225 hhcurveto
            233 162 502 callsubr
            273 callgsubr
            hvcurveto
            241 callsubr
            94 rlineto
            -86 -83 -105.99000549316406 141 callgsubr
            -136 hhcurveto
            -143 -48 126.02000427246094 190 5 hvcurveto
            223 6 414.99000549316406 127 -6 321 -72 callgsubr
            141 -91.02000427246094 158 callgsubr
            -212.99000549316406 -72 callgsubr
            -105 -2 -98 -32 -86 -56 12 -12 callgsubr
            rcurveline
            -101.00999450683594 -32 rlineto
            17 -59 -77.99000549316406 15.009994506835938 -64 hhcurveto
            -451.00999450683594 -258 -409 -353 hvcurveto
            1325.020004272461 489 rmoveto
            71 callsubr
            -200 -229 -110 -134.99000549316406 -7 rrcurveto
            178 36 callsubr
            304 callsubr
            283.00999450683594 173.02000427246094 hhcurveto
            62 35 -47 -97 2 hvcurveto
            -572.0099945068359 134.99000549316406 rmoveto
            -100 -641.9900054931641 22 23 rlineto
            -4.0200042724609375 vlineto
            hintmask 01111100
            -99 -59.99000549316406 -110 -149 -110 hhcurveto
            150 callsubr
            -10 callsubr
            116 153 257 52 callsubr
            350.99000549316406 280 hvcurveto
            hintmask 10111100
            22 61 callsubr
            -79 callgsubr
            -4.0200042724609375 448 callgsubr
            endchar
          </CharString>
          <CharString index="13">
            96.99000549316406 return
          </CharString>
          <CharString index="14">
            rmoveto
            -17 -122 -22 -140 -91 vvcurveto
            -200 -79 callsubr
            139.02000427246094 -64 134.99000549316406 hhcurveto
            164 105 84 81.97999572753906 70 hvcurveto
            4 -6 return
          </CharString>
          <CharString index="15">
            rmoveto
            -433.99000549316406 -235 -404.00999450683594 -352.99000549316406 -238 104.02000427246094 -188 239 121 131 callsubr
            53 62 66 hvcurveto
            -32.99000549316406 -239.97999572753906 rlineto
            -172 -23 -53 -38 -151 hhcurveto
            -112 -127 62 22.020004272460938 -36 hvcurveto
            -51 -202.02000427246094 rlineto
            -18 40 112.99000549316406 -23 94 hhcurveto
            237.02000427246094 62 callgsubr
            101.00999450683594 336 46 hvcurveto
            178 1240 -144.02000427246094 -44 rlineto
            70 callsubr
            -59 -92 23 -83.00999450683594 hhcurveto
            -59 callgsubr
            -903 rmoveto
            -62 -51 -77 -58 -19 callgsubr
            hhcurveto
            -93 -59 101 177.99000549316406 256 -42 callsubr
            356 262 42 39 -6 -36 callgsubr
            34 hvcurveto
            -109 -750 rlineto
            endchar
          </CharString>
          <CharString index="16">
            -536 -105 callgsubr
            endchar
          </CharString>
          <CharString index="17">
            82.99000549316406 97.02000427246094 return
          </CharString>
          <CharString index="18">
            rmoveto
            -10.990005493164062 120 callgsubr
            -5 -4 48 hvcurveto
            -3 25 43.99000549316406 -3.9900054931640625 23 hhcurveto
            563.0200042724609 -5 286.97999572753906 401.97999572753906 -5 540 -79 callgsubr
            360 -168.02000427246094 258.00999450683594 -448.99000549316406 -1 rrcurveto
            197 callsubr
            -107.99000549316406 292 callsubr
            -100 hvcurveto
            -309 291 callgsubr
            -166 -64 callgsubr
            -153 -30 rlineto
            return
          </CharString>
          <CharString index="19">
            -188 -512 169 1342.990005493164 163 197 23 callsubr
            281 callgsubr
            62 callgsubr
            137.99998474121094 232 callsubr
            -179.99998474121094 245 hintmask 11110100
            281 callgsubr
            3 callsubr
            322 callsubr
            81 callgsubr
            2 -54 -68 callsubr
            56 callgsubr
            hhcurveto
            -96.02000427246094 -34 callsubr
            hintmask 11111000
            405 callgsubr
            338 callgsubr
            59 -70 72.99000549316406 -16 callsubr
            -562 -560 rmoveto
            197 -1006.9799957275391 rlineto
            154 hlineto
            -208 -114.02000427246094 -123 -72 -108 hhcurveto
            -80 -73.00999450683594 30 -50 callgsubr
            -72 callsubr
            hvcurveto
            -64 -181.99000549316406 rlineto
            -17 32 -42 callsubr
            -76 callgsubr
            65 hhcurveto
            -27 callsubr
            137.02000427246094 73 161 43 callgsubr
            hvcurveto
            hintmask 11110100
            84.00999450683594 120 163 259.99000549316406 127 264.99000549316406 rrcurveto
            -4 callsubr
            193 98 184.02000427246094 220 vvcurveto
            109 -52 -12 callgsubr
            115 callgsubr
            -83 115 callsubr
            -47 -76 vhcurveto
            -90 45 -27 -98 vvcurveto
            -196.02000427246094 -85.00999450683594 -181.99000549316406 -88.99000549316406 -200 vhcurveto
            -104 -212.99000549316406 -25 94 callgsubr
            -23 147 -61 467 -24 158 callsubr
            rlinecurve
            86 -11.979995727539062 -42 51.02000427246094 -110 hhcurveto
            176 callgsubr
            -103 -95 -78 callgsubr
            -18 hvcurveto
            29 -70 rlineto
            25 31.009994506835938 17 3 16 hhcurveto
            hintmask 11111000
            21.020004272460938 12 230 callsubr
            250 callgsubr
            endchar
          </CharString>
          <CharString index="20">
            rmoveto
            hintmask 01011111
            -95 callgsubr
            hintmask 10011111
            95 callsubr
            hvcurveto
            hintmask 10101111
            1365.009994506836 735.9900054931641 rmoveto
            -75 -38 -7 -240 -45 callgsubr
            -93 rrcurveto
            306 callgsubr
            hlineto
            86 10 54 73.00999450683594 131 callsubr
            hhcurveto
            357.00999450683594 -1 -120 -100 -645.0200042724609 -790 65 211 callgsubr
            44 callgsubr
            71 callsubr
            rlineto
            23 27 47 6 27 123 209 callsubr
            -32.99000549316406 220 callsubr
            hhcurveto
            51 35 8 12 17.020004272460938 hvcurveto
            74 358 callsubr
            -64.99000549316406 134 callgsubr
            -104 hhcurveto
            -370.00999450683594 407 callgsubr
            87 648.9900054931641 464 callsubr
            -28 -6 -42 -125.99000549316406 -300.02000427246094 286 callsubr
            hintmask 01011111
            -713.0099945068359 -865 -70 callsubr
          </CharString>
          <CharString index="21">
            -433.99000549316406 -235 -404.00999450683594 -352.99000549316406 -238 -4 callsubr
            -188 238 130 105 72 76 70 181 callsubr
            -13 return
          </CharString>
          <CharString index="22">
            rmoveto
            -75 -38 -7 -240 -45 callgsubr
            -93 rrcurveto
            306 callgsubr
            hlineto
            86 10 54 73.00999450683594 131 callsubr
            hhcurveto
            357.00999450683594 -1 -120 -100 -644.9900054931641 -790 134 callsubr
            211 callgsubr
            44 callgsubr
            71 callsubr
            rlineto
            23 27 47 6 -9 callgsubr
            123 209 callsubr
            -32.99000549316406 220 callsubr
            hhcurveto
            51.02000427246094 35 8 12 17 hvcurveto
            74 142 callgsubr
            11 233.99000549316406 -7 93 rrcurveto
            -83 hlineto
            175 callsubr
            -11.979995727539062 -65 134 callgsubr
            -104 hhcurveto
            -370.00999450683594 407 callgsubr
            87 648.9900054931641 804 -54.99000549316406 61 -2 -2 rlineto
            -23 -29 -28 -6 -42 -126 -300.00999450683594 286 callsubr
            endchar
          </CharString>
          <CharString index="23">
            4 callsubr
            320 callsubr
            71.99000549316406 2 -54 67.00999450683594 -84.99000549316406 245 callgsubr
            108.00999450683594 112 callsubr
            -90 callsubr
            1 hvcurveto
            71.99000549316406 1 -53 67.00999450683594 56 callgsubr
            hhcurveto
            55 callgsubr
            return
          </CharString>
          <CharString index="24">
            1503.990005493164 rmoveto
            195 callsubr
            return
          </CharString>
          <CharString index="25">
            50 callsubr
            1127 hlineto
            -68 callsubr
            384 -164 61 callsubr
            -107.99000549316406 -248 -485.00999450683594 -30 76 588.9900054931641 420 109 callgsubr
            25 148 callgsubr
            -430.02000427246094 -33 73.00999450683594 549.0099945068359 366 169 callsubr
            -199 rlineto
            171 hlineto
            23 334.00999450683594 rlineto
            -1454 hlineto
            -15.020004272460938 -111 292 -24 rlineto
            hintmask 10111100
            -714.9900054931641 -1259.990005493164 -156 208 callgsubr
            454 callgsubr
            107 callgsubr
            -189 30 163 315 rlineto
            474 hlineto
            hintmask 01111100
            -38.99000549316406 -315 -142 -30 rlineto
            202 1302 rmoveto
            326 callsubr
            -2 93 callgsubr
            -816.9900054931641 rlineto
            -420 hlineto
            424 819 rlineto
            endchar
          </CharString>
          <CharString index="26">
            rmoveto
            -21.009994506835938 -156 0 -23 -13 vvcurveto
            -136.99000549316406 -12 callgsubr
            -42 99 210 callgsubr
            142 94 63 53 vhcurveto
            -22 88 callgsubr
            rlineto
            187 callsubr
            -47 -81 -30 -51 hhcurveto
            -59 -19 23 63 36 6 50.02000427246094 10 69.97999572753906 hvcurveto
            83 476 callsubr
            rlineto
            229 hlineto
            22 151 rlineto
            -232 hlineto
            33 261 rlineto
            -147 hlineto
            -38.99000549316406 -58 callsubr
            -57 105 callgsubr
            -53 -70 callgsubr
            -122 -47 rcurveline
            -23 -99 rlineto
            120 hlineto
            -85 -653 rlineto
            return
          </CharString>
          <CharString index="27">
            -72 callgsubr
            -76 callgsubr
            -4.0200042724609375 -36 255 callsubr
            1 75 -37 95 hhcurveto
            144 99 114.99000549316406 29 448 callgsubr
            -29 64 rlineto
            -46 -56 295 callsubr
            368 callsubr
            -27.009994506835938 return
          </CharString>
          <CharString index="28">
            1.9900054931640625 return
          </CharString>
          <CharString index="29">
            648 -51 callsubr
            hstemhm
            856.9799957275391 271.99000549316406 273.02000427246094 89 callsubr
            -191.99000549316406 281 hintmask 11101000
            821.9900054931641 442.97999572753906 rmoveto
            447 callgsubr
            rlineto
            -47 callsubr
            hintmask 11110000
            -76 callgsubr
            -115 -22 -124 -79 callgsubr
            -75 rrcurveto
            -1 callsubr
            -2 -34 callgsubr
            -68.97000122070312 136 hhcurveto
            154 99 115.97999572753906 29 21 313 callgsubr
            -44 -54 -23 -11 -22 hhcurveto
            -19 -13 17 232 callgsubr
            2 hvcurveto
            3 88 22 116 17 103.02000427246094 rrcurveto
            hintmask 11101000
            19 115 28 165 -75 callgsubr
            165 callsubr
            rrcurveto
            endchar
          </CharString>
          <CharString index="30">
            rmoveto
            93 -77 -4 callsubr
            36 194.99000549316406 122 52 105 rlinecurve
            -159.99000549316406 156 -276.00999450683594 -342 rlineto
            return
          </CharString>
          <CharString index="31">
            -53 callgsubr
            77 hhcurveto
            115 65 -90 callsubr
            1.9900054931640625 -55 callsubr
            -98 return
          </CharString>
          <CharString index="32">
            -90 callsubr
            1 hvcurveto
            -77 callgsubr
            return
          </CharString>
          <CharString index="33">
            rmoveto
            -88 callgsubr
            return
          </CharString>
          <CharString index="34">
            82.99000549316406 97.02000427246094 2 -63 callgsubr
            return
          </CharString>
          <CharString index="35">
            -25.990005493164062 return
          </CharString>
          <CharString index="36">
            -351 -268.97999572753906 -328.99000549316406 -405 -3 hvcurveto
            -228 -2 119 -227 304 hhcurveto
            return
          </CharString>
          <CharString index="37">
            rmoveto
            -67.00999450683594 32 callsubr
            -80 -70 64 callgsubr
            hhcurveto
            -93 -57 101 177.99000549316406 256 94 356 262 46 42 -6 -18.990005493164062 36 hvcurveto
            149 callgsubr
            -729 rlineto
            endchar
          </CharString>
          <CharString index="38">
            rmoveto
            10 199 callgsubr
            73.00999450683594 12 -23 callsubr
            hhcurveto
            253 -4 callgsubr
            -140 -380.99000549316406 3.0200042724609375 194 callsubr
            -355 -138 -421.00999450683594 -375.00999450683594 -12 rrcurveto
            -51 -88 11 16 115 callsubr
            hvcurveto
            163 1260.009994506836 rlineto
            return
          </CharString>
          <CharString index="39">
            67.00999450683594 return
          </CharString>
          <CharString index="40">
            87 -20 322 callgsubr
            -165.99000549316406 220 callsubr
            864 159 hstemhm
            264.99000549316406 280 281.989990234375 237.00999450683594 hintmask 10011000
            305.99000549316406 -372 rmoveto
            60 407.97999572753906 rlineto
            -35.97999572753906 33 -19 callsubr
            -20 64 hhcurveto
            158 81 88 50 52 hvcurveto
            hintmask 01011000
            231 callgsubr
            -12 64 -24 113 callsubr
            hhcurveto
            52 callsubr
            100 92 35 22 hvcurveto
            -30 64 rlineto
            -18 -72 callsubr
            174 callsubr
            -20 -22 hhcurveto
            -72 callsubr
            -13 24 52 7 hvcurveto
            126 938 521 callgsubr
            hintmask 10111000
            -116 -863.9900054931641 rlineto
            -58 -50 -70 -79.02000427246094 133 callgsubr
            hhcurveto
            -69 -59 40 149 126 22.020004272460938 101.00999450683594 18.990005493164062 150 callgsubr
            hvcurveto
            18 117 -27 callgsubr
            124 6 106 rrcurveto
            97 5 -67.02000427246094 32 175 callsubr
            hhcurveto
            -157 -86 -101.00999450683594 -59 callgsubr
            -76 callgsubr
            hvcurveto
            30 -67.00999450683594 rlineto
            19 28 23 11 21.020004272460938 hhcurveto
            18.990005493164062 15.009994506835938 -18 -48 -1 hvcurveto
            -18 -209 187 callsubr
            -176 -25 -188.99000549316406 197 callsubr
            -729.9900054931641 rcurveline
            hintmask 10011000
            230 hlineto
            endchar
          </CharString>
          <CharString index="41">
            rmoveto
            -24 234 callgsubr
            60 -13 73.00999450683594 491 callsubr
            409 callgsubr
            334 callgsubr
            292 callgsubr
            -70 callgsubr
            207 callsubr
            -19 -81 161 -51 93 callgsubr
            -915 rlineto
            -237.97000122070312 -72 callsubr
            -53 -222 -190.99000549316406 hhcurveto
            -10 -44.02000427246094 5 7 -18 hvcurveto
            87 callsubr
            -104 rlineto
            endchar
          </CharString>
          <CharString index="42">
            78 callgsubr
            72.00999450683594 163 callsubr
            -86 hhcurveto
            100 callgsubr
            -70 -69 -95 213 callsubr
            436.99000549316406 2 rmoveto
            -76 205 callsubr
            72 95 callgsubr
            320 callsubr
            71 1 return
          </CharString>
          <CharString index="43">
            rmoveto
            -127 -961.9900054931641 362 callgsubr
            hintmask 01100000
            99 750 rlineto
            97 54 100 133 callsubr
            88 hhcurveto
            58 36.99000549316406 -16 -9.990005493164062 220 callgsubr
            hvcurveto
            58 292 271 callgsubr
            -11 -27.009994506835938 -61 callsubr
            -28 hhcurveto
            -175 -125.99000549316406 -154 -123 -42 hvcurveto
            17 247 -51 30 -292 -52 -17 -89 rlineto
            hintmask 10100000
            104 -60 rlineto
            return
          </CharString>
          <CharString index="44">
            83 callgsubr
            54 callgsubr
            478.47999572753906 141.49000549316406 414.00999450683594 322.52000427246094 -60.52000427246094 124 return
          </CharString>
          <CharString index="45">
            2.9900054931640625 return
          </CharString>
          <CharString index="46">
            9.009994506835938 return
          </CharString>
          <CharString index="47">
            -68 callsubr
            56 callgsubr
            hhcurveto
            55 callgsubr
            -34 callsubr
            return
          </CharString>
          <CharString index="48">
            228.99000549316406 -515.0099945068359 rlineto
            -74 34 56.02000427246094 -40 53 callsubr
            hhcurveto
            144.02000427246094 123 105 262 callgsubr
            38 hvcurveto
            -34 -68 callsubr
            rlineto
            -35 -40 -49 -17 -25 hhcurveto
            63 callgsubr
            -46 35 58 174 callsubr
            hvcurveto
            -221 392.99000549316406 118 59 159 98 82.99000549316406 112 rlinecurve
            27.009994506835938 38 -50 callgsubr
            45 -13 callsubr
            vvcurveto
            64 -48 callgsubr
            -46.02000427246094 51.02000427246094 -23 callgsubr
            hhcurveto
            -62 -83 -30 -93 -6 hvcurveto
            return
          </CharString>
          <CharString index="49">
            -95.99000549316406 return
          </CharString>
          <CharString index="50">
            -14 123 601.9799957275391 152 555.010009765625 122 hstem
            1134.979995727539 232 callsubr
            vstem
            -4 callgsubr
            862.9900054931641 rmoveto
            -22 -152 rlineto
            305 callsubr
            hlineto
            -76 -582 457 callsubr
            -30 -11 120 callgsubr
            -4.9799957275390625 -4.0099945068359375 48 hvcurveto
            -72 callgsubr
            25 43.99000549316406 -4.0200042724609375 23 hhcurveto
            563 -5 287 402 -5 540 -2 360 -168 258 -449 -1 rrcurveto
            -107.99000549316406 197 callsubr
            41 callgsubr
            -48 callgsubr
            462 callsubr
            -70 -530 rlineto
            -141 hlineto
            404.00999450683594 -152 rmoveto
            335.99000549316406 hlineto
            21 152 rlineto
            -337 hlineto
            69 533.0099945068359 rlineto
            346 callgsubr
            -381.00999450683594 493 callsubr
            -420.99000549316406 465 callgsubr
            243 callsubr
            575 rlineto
            endchar
          </CharString>
          <CharString index="51">
            -19.990005493164062 return
          </CharString>
          <CharString index="52">
            hvcurveto
            -77 callgsubr
            1 85 callsubr
            return
          </CharString>
          <CharString index="53">
            0 142 562.4900054931641 171.99000549316406 520.5199890136719 -24 callsubr
            return
          </CharString>
          <CharString index="54">
            365 callsubr
            600 hlineto
            7 98 -185.02000427246094 29 65 537.9900054931641 rlineto
            62 121 1 0 hvcurveto
            112 callsubr
            135 callsubr
            81.02000427246094 -228 68 -180 59 -154 36 -76.97999572753906 39 323 callgsubr
            332 -1.9799957275390625 rcurveline
            -30 callgsubr
            176 callsubr
            -134.99000549316406 2 -13 62 -100 218 rlinecurve
            -35 82.97999572753906 -75 174 -57 58 199 callsubr
            -14 callsubr
            133 177 -72 callgsubr
            226 rrcurveto
            237 -2 -129 127 -379.99000549316406 -133.02000427246094 -41 callgsubr
            -16 -109 hhcurveto
            -293 hlineto
            -12 -106 139 269 callsubr
            -135 -30 rlineto
            675 694.9900054931641 rmoveto
            -33 -48 callgsubr
            -106 -55 callgsubr
            -41 3 82 607.9900054931641 rcurveline
            7 41 72 5 234 callgsubr
            hhcurveto
            192 198 callgsubr
            -78.99000549316406 -157 6 hvcurveto
            257 callsubr
            -229 -112 -151 -212 -7 rrcurveto
            endchar
          </CharString>
          <CharString index="55">
            159.99000549316406 890.989990234375 132 return
          </CharString>
          <CharString index="56">
            -59 callgsubr
            -37 callsubr
            849.9900054931641 179.99000549316406 return
          </CharString>
          <CharString index="57">
            396 0 167.99000549316406 1249 124 hstemhm
            -47.49000549316406 171.47999572753906 32.00001525878906 188 callgsubr
            813.9999847412109 288.00999450683594 hintmask 11011000
            884.9799957275391 333 callgsubr
            rmoveto
            31 458 callgsubr
            rlineto
            675 hlineto
            69 418 -158 -62 callsubr
            -77.99000549316406 -243 rlineto
            -295.00999450683594 hlineto
            238.02000427246094 186 168 346.99000549316406 269 vvcurveto
            361 -244 200 -366 -508 -261 -325 -416.02000427246094 -253 150 -256.97999572753906 136.99000549316406 -122 vhcurveto
            hintmask 11111000
            -308 hlineto
            -22 226 -157.97999572753906 10 -5 -403.99000549316406 rlineto
            673.9700012207031 hlineto
            46 333 callgsubr
            rlineto
            hintmask 11011000
            -107.99000549316406 92.02000427246094 -129 280 279 vvcurveto
            374.99000549316406 161 251 294.00999450683594 232 127 -216 -256 -359 -150 -312.00999450683594 -212 -134 vhcurveto
            endchar
          </CharString>
          <CharString index="58">
            rmoveto
            31.009994506835938 -88.99000549316406 rlineto
            1071 hlineto
            97 398.99000549316406 -150 41 -166.02000427246094 -293.00999450683594 -553 -23 130 141 832 1171 -27 86 rlineto
            -995 hlineto
            -61 -372 150 -23 122 260 501 13 -143 -142 -839 -1169 rlineto
            endchar
          </CharString>
          <CharString index="59">
            -43.99000549316406 return
          </CharString>
          <CharString index="60">
            274 hlineto
            61.99000549316406 505 11 80 11 -42 callsubr
            6 104 callsubr
            rlinecurve
            -24 callsubr
            78 111 91.02000427246094 242 callgsubr
            hhcurveto
            53 35 -21.020004272460938 204 callgsubr
            -29 -159.99000549316406 -18 -110 rrcurveto
            return
          </CharString>
          <CharString index="61">
            -257 -20 169 -169 1183 -158.00999450683594 158 hstemhm
            -65 1141 hintmask 01010000
            461.99000549316406 401 rmoveto
            hintmask 10110000
            110 -316 rlineto
            -63 23 302 callsubr
            -42 -42 callsubr
            hhcurveto
            166.02000427246094 108.99000549316406 120.99000549316406 28 16 hvcurveto
            -41 70 rlineto
            -48 callsubr
            -54 -72 callsubr
            -6 -76 callgsubr
            hhcurveto
            -28 -10 callsubr
            54 107 callsubr
            -18 hvcurveto
            -171 337 445.00999450683594 577 rlineto
            -264 hlineto
            -255 -399 -97.00999450683594 302 rlineto
            68 -22 -51 37 -99 hhcurveto
            -144 -98 64 callgsubr
            282 callsubr
            -17 hvcurveto
            38 -71 rlineto
            18 22 70 callsubr
            11 33 hhcurveto
            28 21.020004272460938 -33 187 callsubr
            281 callsubr
            hvcurveto
            175 -355 -450.99000549316406 -578.9900054931641 rlineto
            274 hlineto
            hintmask 01010000
            422 callsubr
            401 rlineto
            endchar
          </CharString>
          <CharString index="62">
            101.99000549316406 return
          </CharString>
          <CharString index="63">
            -82 121 callsubr
            hstem
            837.9799957275391 284.02000427246094 vstem
            349 -8 rmoveto
            157 callsubr
            38 210 callsubr
            444 callgsubr
            406 252 367 callgsubr
            -114.02000427246094 169 -230.99000549316406 -127 55 callgsubr
            -61 -41 callgsubr
            -63 hvcurveto
            12 104 -70 callgsubr
            24 -327 -52 -17 -85.00999450683594 108 -54.99000549316406 439 callsubr
            71 512 rlineto
            122.99000549316406 876.9900054931641 rmoveto
            -68 callsubr
            49 -19 callsubr
            197 callgsubr
            -12 callgsubr
            hhcurveto
            101 52.99000549316406 439 callgsubr
            -98 -335.00999450683594 239 callsubr
            -50 -39.02000427246094 6 208 callsubr
            -34 hvcurveto
            103 735.9900054931641 rlineto
            endchar
          </CharString>
          <CharString index="64">
            26.009994506835938 return
          </CharString>
          <CharString index="65">
            95.99000549316406 return
          </CharString>
          <CharString index="66">
            -12.990005493164062 return
          </CharString>
          <CharString index="67">
            158 103 94 callgsubr
            159.99000549316406 177 vvcurveto
            76 -59.99000549316406 42 -68.02000427246094 -88.99000549316406 -84 -48 -89 -53 -43 callsubr
            -11 -2 -36 vhcurveto
            355 callsubr
            -22 -44 218 callsubr
            -35 vhcurveto
            -52 141 callgsubr
            32 callsubr
            32 callsubr
            -63 -51 rrcurveto
            -157 hlineto
            68 455 callgsubr
            -61 198 callsubr
            137 callsubr
            103 -59 return
          </CharString>
          <CharString index="68">
            rmoveto
            -138 -1142.990005493164 rlineto
            -135.99000549316406 -18 -41 -78.00999450683594 -64 hhcurveto
            -49 -1 -98 39 -13 5.9900054931640625 -55.99000549316406 382 callgsubr
            -34 callgsubr
            76 302 callgsubr
            242 callsubr
            974.9900054931641 rcurveline
            199 hlineto
            23.979995727539062 159 rlineto
            354 callgsubr
            hlineto
            16 123 rlineto
            return
          </CharString>
          <CharString index="69">
            hhcurveto
            -22 -111 -43 callsubr
            -30 callgsubr
            -9.970001220703125 hvcurveto
            -59 -256 rlineto
            -8.979995727539062 4 67.99000549316406 -36 callgsubr
            23 hhcurveto
            134 53 62.970001220703125 81.02000427246094 53 hvcurveto
            -19 callsubr
            175 callgsubr
            return
          </CharString>
          <CharString index="70">
            153.99000549316406 return
          </CharString>
          <CharString index="71">
            rmoveto
            368 -196.02000427246094 244 -313 -331 -93 -19 callgsubr
            -2 -109 vhcurveto
            -44.99000549316406 -313 rlineto
            151 callgsubr
            hlineto
            113 callsubr
            179 rlineto
            65 43.99000549316406 81 42 136 hhcurveto
            204 121 -217 -354 -13 callgsubr
            hvcurveto
            -48 callgsubr
            141 callsubr
            -1 -27 -2 -25 rrcurveto
            -874 hlineto
            -59 callgsubr
            -58 -23 -121 -117 vvcurveto
            -319 174 -182.97999572753906 293.00999450683594 396 337 398.99000549316406 549.9900054931641 vhcurveto
            -294.00999450683594 376 callgsubr
            rmoveto
            -391 -50 -157 -156 -177 hhcurveto
            -176 -81.99000549316406 156 187 69 11.979995727539062 62.02000427246094 208 callsubr
            -19 callsubr
            hvcurveto
            613.9900054931641 hlineto
            endchar
          </CharString>
          <CharString index="72">
            rmoveto
            -50 -435 -48 callsubr
            -479.99000549316406 150 callsubr
            470 callsubr
            -109 -141 -200 -60 44 -99 rcurveline
            244.97999572753906 382 callsubr
            32 131 callsubr
            69.97999572753906 130 callgsubr
            149 24 rcurveline
            11 106 rlineto
            -569 hlineto
            41 callgsubr
            -106 145 -25 rlineto
            endchar
          </CharString>
          <CharString index="73">
            -65.99000549316406 -24 callgsubr
            return
          </CharString>
          <CharString index="74">
            280 callgsubr
            246.99000549316406 -8 callgsubr
            return
          </CharString>
          <CharString index="75">
            -53 callgsubr
            76.99000549316406 hhcurveto
            115.02000427246094 return
          </CharString>
          <CharString index="76">
            rmoveto
            -11 120 callgsubr
            -5 -4 48 hvcurveto
            -3 25 43.99000549316406 -3.9900054931640625 23 hhcurveto
            563 -5 287 401.97999572753906 -5 540 -2 360 -168 258.00999450683594 -449 -1 rrcurveto
            -107.99000549316406 197 callsubr
            292 callsubr
            462 callsubr
            -166 -64 callgsubr
            457 callsubr
            -30 rlineto
            600.9900054931641 1297 rmoveto
            346 callgsubr
            -380.99000549316406 493 callsubr
            -421.00999450683594 465 callgsubr
            163 1260.009994506836 rlineto
            endchar
          </CharString>
          <CharString index="77">
            25.990005493164062 return
          </CharString>
          <CharString index="78">
            -29 64 rlineto
            -35 -46 109 callgsubr
            -11 -19 hhcurveto
            -19 -19 18 352 callsubr
            6 hvcurveto
            387 callgsubr
            936.0200042724609 rlineto
            -912.0200042724609 hlineto
            -16 176 callgsubr
            214 -48 callsubr
            87 callsubr
            -283 -64 -315 -64 -110 rlinecurve
            -27.009994506835938 -15.020004272460938 -36 callgsubr
            -16 41 callgsubr
            -38 callsubr
            108 602.0099945068359 20 210 callgsubr
            rrcurveto
            298 hlineto
            157 callgsubr
            -872 rlineto
            endchar
          </CharString>
          <CharString index="79">
            727 -96.99000549316406 rmoveto
            262 hlineto
            82 191 -17 47 hhcurveto
            370.00999450683594 206 callgsubr
            -166 129 -321 -19 callgsubr
            -64 71 callgsubr
            -10 -44 hvcurveto
            -68 callsubr
            518.9900054931641 -27 callsubr
            30 11.020004272460938 101.00999450683594 rlineto
            -588 hlineto
            -12 -106 63 callsubr
            -25 -163.99000549316406 -64 callgsubr
            -148 -30 -12 -93 callgsubr
            524 744.9799957275391 rmoveto
            1 hlineto
            -61 callsubr
            -34 callgsubr
            273 callgsubr
            10 callsubr
          </CharString>
          <CharString index="80">
            164.99000549316406 return
          </CharString>
          <CharString index="81">
            -78 callgsubr
            -41 callsubr
            return
          </CharString>
          <CharString index="82">
            -71 -547 rlineto
            -597 hlineto
            71 547 168 25 12 106 321 callgsubr
            82 callgsubr
            140 -25 return
          </CharString>
          <CharString index="83">
            124.99000549316406 return
          </CharString>
          <CharString index="84">
            66.99000549316406 return
          </CharString>
          <CharString index="85">
            rlineto
            272 hlineto
            93 734.9900054931641 rlineto
            137 80 242 callsubr
            111 91 hhcurveto
            55.99000549316406 37 84 callsubr
            -30 -162 -21.009994506835938 -111 rrcurveto
            return
          </CharString>
          <CharString index="86">
            -6 callsubr
            598 hlineto
            return
          </CharString>
          <CharString index="87">
            -78.99000549316406 -96.02000427246094 return
          </CharString>
          <CharString index="88">
            72.99000549316406 return
          </CharString>
          <CharString index="89">
            rmoveto
            350.99000549316406 269 328.99000549316406 422 callgsubr
            3 hvcurveto
            228 -79 callsubr
            -118.99000549316406 227 -304 hhcurveto
            335 callgsubr
            -158 -140 -19 callgsubr
            241 callsubr
            hvcurveto
            56.02000427246094 -94 rlineto
            85 81 103 71 133 hhcurveto
            145 60 -148 274 callsubr
            -6 hvcurveto
            -224.99000549316406 -6 -420 -129 6 -321 rrcurveto
            -140.99000549316406 -62 callsubr
            94 -109.99000549316406 212 hhcurveto
            -39 420 callsubr
            rmoveto
            -4 148 callgsubr
            234 111 136.99000549316406 7 rrcurveto
            -178 -36 callgsubr
            -75 -283 -176 hhcurveto
            -62 -37 46 398 callgsubr
            -2 hvcurveto
            endchar
          </CharString>
          <CharString index="90">
            18 callsubr
            71 -70 77 hhcurveto
            115 71 83 -94 callsubr
            1.9900054931640625 484 callgsubr
            return
          </CharString>
          <CharString index="91">
            13 callgsubr
            -85.00999450683594 129 callgsubr
            -1 hvcurveto
            return
          </CharString>
          <CharString index="92">
            161 23 -43 callsubr
            99 callgsubr
            101.00999450683594 hhcurveto
            67.99000549316406 -55 callgsubr
            41 63 callgsubr
            24 418 callsubr
            -51 -61 4 -52.99000549316406 hhcurveto
            -229 -174 -197 239 callsubr
            -41 hvcurveto
            -12 -75 79 callgsubr
            return
          </CharString>
          <CharString index="93">
            72.00999450683594 return
          </CharString>
          <CharString index="94">
            54.99000549316406 return
          </CharString>
          <CharString index="95">
            76 callsubr
            167.02000427246094 vvcurveto
            99.99000549316406 return
          </CharString>
          <CharString index="96">
            rmoveto
            -374 -245 -341 -386 10 hvcurveto
            -296 -61 callsubr
            145 -165.99000549316406 275.99000549316406 hhcurveto
            374 246 344 385.99000549316406 -10 hvcurveto
            296 -7 -149 163 -274.97999572753906 hhcurveto
            -303 -518 rmoveto
            201 114 callsubr
            104 callsubr
            425 callgsubr
            151 441 callsubr
            -61 -438.99000549316406 vlineto
            431.97999572753906 -108 rmoveto
            -221 -23.979995727539062 -81 -216 -162.02000427246094 hhcurveto
            -117.99000549316406 -55 -17 callgsubr
            226 -5 hvcurveto
            -1 133 callsubr
            0 35 2 35 rrcurveto
            443.99000549316406 hlineto
            endchar
          </CharString>
          <CharString index="97">
            -31.990005493164062 return
          </CharString>
          <CharString index="98">
            496 callsubr
            -146 -60 144.02000427246094 378 callgsubr
            -72 callgsubr
            -94 109.02000427246094 -212 hhcurveto
            -304.99000549316406 -243 -247 -330 -61 hvcurveto
            -87 19 -13 112 callsubr
            47 vvcurveto
            33 23 56 -27 callgsubr
            18 vhcurveto
            -153 94 rlineto
            -64 -36 -34 -89 -54 vvcurveto
            -140 93 -104 202 445 callgsubr
            661.0200042724609 420 rmoveto
            71 callsubr
            -199 -234 -111 -136.99000549316406 -7 rrcurveto
            178 15 75 283.00999450683594 176 hhcurveto
            62 37 -46 -98 2 hvcurveto
            endchar
          </CharString>
          <CharString index="99">
            122 callsubr
            hstem
            444 callsubr
            452 295.00999450683594 vstem
            return
          </CharString>
          <CharString index="100">
            83 610 521 callgsubr
            197 callsubr
            -795 -4 -25 -62 callsubr
            -28 3 -78 callgsubr
            rlinecurve
            -74 -53 -91 -73.00999450683594 -94 hhcurveto
            -75 -41 35 44 callsubr
            76.99000549316406 22 131 12 -94 callsubr
            hvcurveto
            69 550.0200042724609 -50 24 -333 -41 -16 -89 112.99000549316406 -71 -52 -365 71 callgsubr
            -95 109 callgsubr
            -167 1 -91 rlinecurve
            -200 -55 callgsubr
            139.02000427246094 -64 134.99000549316406 hhcurveto
            181 110 103.99000549316406 88 69 hvcurveto
            -125.00999450683594 5.0200042724609375 81 -41 callgsubr
            333 callsubr
            hhcurveto
            return
          </CharString>
          <CharString index="101">
            -22 callgsubr
            595 229 callgsubr
            -167 29 75 581 rlineto
            return
          </CharString>
          <CharString index="102">
            -11 -93 callgsubr
            return
          </CharString>
          <CharString index="103">
            96.00999450683594 return
          </CharString>
          <CharString index="104">
            vstem
            11.979995727539062 96.99000549316406 -99 callgsubr
            return
          </CharString>
          <CharString index="105">
            24 callsubr
            -143 -10 callgsubr
            -6 -81 rlineto
            return
          </CharString>
          <CharString index="106">
            -84.00999450683594 return
          </CharString>
          <CharString index="107">
            -80 209 callgsubr
            159.99000549316406 890.989990234375 347 callsubr
            hintmask 01110000
            return
          </CharString>
          <CharString index="108">
            856 hlineto
            22 273 callgsubr
            22 122 116.99000549316406 vvcurveto
            233 callgsubr
            -169 182.99000549316406 -285 -326 -285.97999572753906 -269.99000549316406 -402 -91.02000427246094 vhcurveto
            -125.99000549316406 -79 callsubr
            71 callgsubr
            390 callsubr
            43.99000549316406 321 callsubr
            34 99 20 23 vhcurveto
            -170 199 callgsubr
            rlineto
            -10 callsubr
            -18.990005493164062 -46 -129 -51 vvcurveto
            -135 158 callgsubr
            -61 198 -79 callgsubr
            vhcurveto
            -5 -49 -3 32 callsubr
            159 callgsubr
            vvcurveto
            return
          </CharString>
          <CharString index="109">
            1503.990005493164 rmoveto
            338 callgsubr
            64.99000549316406 -70 77 hhcurveto
            115 65 96 callsubr
            133 callgsubr
            -74 19 callgsubr
            return
          </CharString>
          <CharString index="110">
            -83 callsubr
            60 -70 251 callsubr
            return
          </CharString>
          <CharString index="111">
            -31 callgsubr
            68 callsubr
            return
          </CharString>
          <CharString index="112">
            72 callgsubr
            351 callgsubr
            return
          </CharString>
          <CharString index="113" raw="1">
            f72f1d8c 56ff0043 028f0b 
          </CharString>
          <CharString index="114">
            63 172 rlineto
            24 -27 callgsubr
            64 107 callsubr
            108 callsubr
            hhcurveto
            130 59 -53 56 callgsubr
            115 callgsubr
            -59 -122 -198 -56 callsubr
            hvcurveto
            -88 -13 callgsubr
            -24 -133 111 70 callsubr
            rlineto
            return
          </CharString>
          <CharString index="115">
            35 callgsubr
            219 434 callgsubr
            -211 26 callsubr
            return
          </CharString>
          <CharString index="116">
            1789.990005493164 rmoveto
            -73.00999450683594 return
          </CharString>
          <CharString index="117">
            5 53 hhcurveto
            156 104 -98 -159 -243 -125.00999450683594 -158 273 callsubr
            -71 -48 callsubr
            4 6 174 callsubr
            hvcurveto
            82 634 rlineto
            endchar
          </CharString>
          <CharString index="118">
            70 callgsubr
            vstem
            932.9900054931641 1570 rmoveto
            -421.99000549316406 -344 425 callsubr
            -424 -425 344 -340 421.99000549316406 422.00999450683594 344.99000549316406 340 425 424 -344.99000549316406 340.00999450683594 -422.00999450683594 hvcurveto
            -1412.020004272461 vmoveto
            -356 -280 291 357.00999450683594 356 280 292 356 357 280 -292 -356 -357.00999450683594 -280 -291 -357 hvcurveto
            return
          </CharString>
          <CharString index="119">
            101.00999450683594 87 -77.97999572753906 210 hhcurveto
            491 316.99000549316406 382.99000549316406 529 387.99000549316406 356 callgsubr
            261 -372.02000427246094 -251.99000549316406 -116 -74 -5 -103.02000427246094 hvcurveto
            98 callsubr
            -345.00999450683594 rlineto
            163 hlineto
            75 200.99000549316406 rlineto
            58.02000427246094 113 callgsubr
            56 45 145 hhcurveto
            237 92 -247 -286.97999572753906 hvcurveto
            -12 -1 -11 -11.020004272460938 vvcurveto
            return
          </CharString>
          <CharString index="120">
            hstemhm
            -7 callgsubr
            return
          </CharString>
          <CharString index="121">
            41 callsubr
            -79 callgsubr
            hvcurveto
            return
          </CharString>
          <CharString index="122">
            909 -805.0099945068359 rmoveto
            -58 callsubr
            -13 51.02000427246094 -81 128 hhcurveto
            127 110 98 46 28 380 callgsubr
            -45 -52 -27 -11.020004272460938 -19 hhcurveto
            -27 -12 27.009994506835938 142 callgsubr
            6.9900054931640625 hvcurveto
            126.02000427246094 945.0099945068359 rlineto
            -270.00999450683594 hlineto
            -128 -997.0099945068359 rlineto
            -715 373 rmoveto
            56.02000427246094 62 76 29 47 hhcurveto
            121 24 -95 -57 callgsubr
            hvcurveto
            return
          </CharString>
          <CharString index="123">
            -637.0099945068359 rmoveto
            303 callsubr
            -34 104 callsubr
            124 126 60 194.99000549316406 132 99 callgsubr
            34 -77.99000549316406 -123 -122 241 callsubr
            -207 332 callgsubr
            hvcurveto
            return
          </CharString>
          <CharString index="124">
            149 -20 49 callgsubr
            return
          </CharString>
          <CharString index="125">
            9 callsubr
            -1 return
          </CharString>
          <CharString index="126">
            934.9900054931641 1146 rmoveto
            -66 406 callsubr
            -412 hlineto
            66 487 -61 28.020004272460938 84 callgsubr
            return
          </CharString>
          <CharString index="127">
            1 83 callgsubr
            109.97000122070312 959.010009765625 108.99000549316406 hstem
            -45 callsubr
            282.99000549316406 512.9999847412109 287 vstem
            -45 callsubr
            459 callsubr
            rmoveto
            -251.99000549316406 128 -224.99000549316406 328 363.99000549316406 263 309.97999572753906 391 262 -125.00999450683594 215 -328.99000549316406 -358.00999450683594 -270.99000549316406 -298 -403 vhcurveto
            return
          </CharString>
          <CharString index="128">
            -75 callsubr
            1 -53 -68 callsubr
            return
          </CharString>
          <CharString index="129">
            83 -94 callsubr
            2 168 callgsubr
            -92 hhcurveto
            return
          </CharString>
          <CharString index="130">
            40 callsubr
            hstemhm
            return
          </CharString>
          <CharString index="131">
            -12 callsubr
            -56 31 callgsubr
            return
          </CharString>
          <CharString index="132">
            516 callsubr
            72 hhcurveto
            99.99000549316406 325 callgsubr
            71 97 320 callsubr
            72 2 344 callgsubr
            -1 55 -59 294 callgsubr
            -45 callsubr
            252 callsubr
            56 callgsubr
            -72 -5 callgsubr
            return
          </CharString>
          <CharString index="133">
            271 callsubr
            -177 hlineto
            -339.99000549316406 -339.99000549316406 rlineto
            return
          </CharString>
          <CharString index="134">
            1898.990005493164 rmoveto
            -56 callsubr
            -182 rlineto
            543.9900054931641 269 callgsubr
            return
          </CharString>
          <CharString index="135">
            -38.02000427246094 -50.02000427246094 -56 callsubr
            -7.9900054931640625 -20 hhcurveto
            109 callgsubr
            -13 -30 callsubr
            50 6 hvcurveto
            return
          </CharString>
          <CharString index="136">
            286 -188.989990234375 89 callsubr
            return
          </CharString>
          <CharString index="137">
            -54 32 callsubr
            vvcurveto
            -68.02000427246094 return
          </CharString>
          <CharString index="138">
            451 -20 160.99000549316406 258 callgsubr
            426 callgsubr
            303 116 457.989990234375 347 callsubr
            1040.990005493164 374 callgsubr
            hintmask 10111100
            return
          </CharString>
          <CharString index="139">
            -48.99000549316406 return
          </CharString>
          <CharString index="140">
            130 0 192.97999572753906 hstem
            -48 callsubr
            1386.979995727539 vstem
            -48 callsubr
            22 rmoveto
            11.979995727539062 -22 rlineto
            1358 hlineto
            17 -9 callgsubr
            -569.0200042724609 1492.990005493164 rlineto
            170 callgsubr
            hlineto
            -763.9799957275391 -1497.990005493164 rlineto
            1054.990005493164 210 callgsubr
            rmoveto
            -794.0099945068359 hlineto
            456 931 338 -931 rlineto
            endchar
          </CharString>
          <CharString index="141">
            hhcurveto
            239 283 callgsubr
            180 344 42 292 callgsubr
            -50 207 callsubr
            -19 -81 161 -51 -10 callgsubr
            -915 rlineto
            -237.97000122070312 -78 callgsubr
            return
          </CharString>
          <CharString index="142">
            -79 callsubr
            hvcurveto
            return
          </CharString>
          <CharString index="143">
            13.990005493164062 return
          </CharString>
          <CharString index="144">
            141.99000549316406 return
          </CharString>
          <CharString index="145">
            -72 -52 callgsubr
            46 247 -11 callgsubr
            return
          </CharString>
          <CharString index="146">
            147 callgsubr
            205 callsubr
            72 163 callsubr
            100 callgsubr
            hhcurveto
            -86 -70 -69 -95 -1 hvcurveto
            return
          </CharString>
          <CharString index="147">
            318.99000549316406 return
          </CharString>
          <CharString index="148">
            22 callsubr
            133 callgsubr
            -80 23 callgsubr
            return
          </CharString>
          <CharString index="149">
            155 callsubr
            199 63 callsubr
            168 200 vhcurveto
            -146 hlineto
            -71 -10 -10 callsubr
            -111 -147 hhcurveto
            -144 -6 55 callsubr
            80 return
          </CharString>
          <CharString index="150">
            -74.02000427246094 return
          </CharString>
          <CharString index="151">
            115.02000427246094 return
          </CharString>
          <CharString index="152">
            188 52 -75.02000427246094 99 callsubr
            -148 -1 callsubr
            -10 callgsubr
            -182.99000549316406 -73.02000427246094 -70 callgsubr
            29 35 -39 hvcurveto
            -117 150 return
          </CharString>
          <CharString index="153">
            -104 -25 52 callsubr
            929.989990234375 -8 callsubr
            return
          </CharString>
          <CharString index="154">
            161 callgsubr
            -70 callgsubr
            -76 callgsubr
            vhcurveto
            return
          </CharString>
          <CharString index="155">
            195 callgsubr
            244 callgsubr
            -268 27.020004272460938 return
          </CharString>
          <CharString index="156">
            rmoveto
            -5 callsubr
            return
          </CharString>
          <CharString index="157">
            rmoveto
            -12 -93 callgsubr
            return
          </CharString>
          <CharString index="158">
            -130.99000549316406 -961.9900054931641 362 callgsubr
            return
          </CharString>
          <CharString index="159">
            125.99000549316406 return
          </CharString>
          <CharString index="160">
            88.99000549316406 return
          </CharString>
          <CharString index="161">
            -36 6 9.020004272460938 -17 hvcurveto
            -72 callsubr
            -152 rlineto
            -16 22 92 -12 53 hhcurveto
            191 100 104 171 callgsubr
            return
          </CharString>
          <CharString index="162">
            102.00999450683594 return
          </CharString>
          <CharString index="163">
            53 callsubr
            301.99000549316406 683.0099945068359 304.97999572753906 return
          </CharString>
          <CharString index="164">
            -574 526.9900054931641 322 hstem
            219 callgsubr
            419 callsubr
            vstem
            362.99000549316406 849 rmoveto
            443 callgsubr
            115 callgsubr
            -5 hvcurveto
            -86 -4.0099945068359375 56 -59 74 hhcurveto
            88 340 callsubr
            116.02000427246094 6 hvcurveto
            397 callsubr
            71 callsubr
            -43 69.02000427246094 -97 hhcurveto
            endchar
          </CharString>
          <CharString index="165">
            250 callsubr
            242 callgsubr
            318 callgsubr
            55 callsubr
            58 -202.02000427246094 369 rlineto
            -177.99000549316406 251 callgsubr
            return
          </CharString>
          <CharString index="166">
            -37 callgsubr
            303 callgsubr
            -39 -6 hvcurveto
            -99 -13 -17 -19 callgsubr
            -156 hhcurveto
            return
          </CharString>
          <CharString index="167">
            -53 27 -346.00999450683594 -42 -17 -83 123 36 callgsubr
            return
          </CharString>
          <CharString index="168">
            20.990005493164062 return
          </CharString>
          <CharString index="169">
            161 23 -43 callsubr
            99 callgsubr
            43 callgsubr
            hhcurveto
            82 callsubr
            -55 callgsubr
            40.97999572753906 63 callgsubr
            24 -18 61 174 rcurveline
            22 -51 -61 4 -53 hhcurveto
            -228.99000549316406 -174.02000427246094 -197 239 callsubr
            -40.99000549316406 hvcurveto
            -12 -75 79 callgsubr
            return
          </CharString>
          <CharString index="170">
            140.99000549316406 return
          </CharString>
          <CharString index="171">
            -13.990005493164062 return
          </CharString>
          <CharString index="172">
            -79 callgsubr
            hvcurveto
            return
          </CharString>
          <CharString index="173">
            hhcurveto
            56 callgsubr
            134 callgsubr
            -5 callgsubr
            return
          </CharString>
          <CharString index="174">
            rmoveto
            -681 -1530 rlineto
            181 hlineto
            681 1530 rlineto
            -181 hlineto
            return
          </CharString>
          <CharString index="175">
            60 -90 callsubr
            return
          </CharString>
          <CharString index="176">
            hlineto
            -61 callsubr
            98 return
          </CharString>
          <CharString index="177">
            21.009994506835938 return
          </CharString>
          <CharString index="178">
            3.9900054931640625 return
          </CharString>
          <CharString index="179">
            rmoveto
            hintmask 11111010
            79 callsubr
            return
          </CharString>
          <CharString index="180">
            -595.9900054931641 -60 -158 -451.00999450683594 -111.97999572753906 hhcurveto
            -81 -87 302 callsubr
            16 -12 hvcurveto
            -54.99000549316406 -240 rlineto
            87 callsubr
            53 262 callgsubr
            83 callgsubr
            59 hhcurveto
            269.99000549316406 179 561.9900054931641 715 99 callgsubr
            hvcurveto
            17 146 rlineto
            360 hlineto
            return
          </CharString>
          <CharString index="181">
            -165.99000549316406 hlineto
            -12 -43 -42 -133 -59 callgsubr
            -23 rrcurveto
            -74 -60 157 callgsubr
            -13 -65.99000549316406 hhcurveto
            -213.02000427246094 56 callgsubr
            223 303.97999572753906 126 callgsubr
            hvcurveto
            318.02000427246094 157 callsubr
            128.99000549316406 393 callgsubr
            389 callgsubr
            hhcurveto
            return
          </CharString>
          <CharString index="182">
            1578.990005493164 rmoveto
            64 -112 235 -186.97999572753906 return
          </CharString>
          <CharString index="183">
            119.99000549316406 return
          </CharString>
          <CharString index="184">
            -14 callsubr
            97 1 hvcurveto
            71 1 -48 57 -86 hhcurveto
            return
          </CharString>
          <CharString index="185">
            -6 30 30 callsubr
            return
          </CharString>
          <CharString index="186">
            -71 callsubr
            94 callgsubr
            158 140 53 callgsubr
            56 hvcurveto
            -56 94 rlineto
            -86 -80 -104 -71 -133 hhcurveto
            -145.02000427246094 -59.99000549316406 149 172 6 hvcurveto
            225 6 420 129 -6 321 rrcurveto
            return
          </CharString>
          <CharString index="187">
            127.97999572753906 -53 131.02000427246094 -134 390 callgsubr
            vhcurveto
            -157 274 callsubr
            -5 -41 rlineto
            63 -7 41 -68 -85.99000549316406 vvcurveto
            -140 return
          </CharString>
          <CharString index="188">
            137.99000549316406 274 return
          </CharString>
          <CharString index="189">
            68.02000427246094 return
          </CharString>
          <CharString index="190">
            171 callsubr
            302 callsubr
            78 callsubr
            -37 312 callsubr
            return
          </CharString>
          <CharString index="191">
            -22.020004272460938 204 callgsubr
            return
          </CharString>
          <CharString index="192">
            -57 -68 callsubr
            -93 hhcurveto
            return
          </CharString>
          <CharString index="193">
            277 callgsubr
            -94 callsubr
            -167 30 164 1270.990005493164 rlineto
            535 hlineto
            -167 -1273 -143 -28 -5 callsubr
            587 hlineto
            10 -94 callsubr
            -157 30 return
          </CharString>
          <CharString index="194">
            -36.99000549316406 return
          </CharString>
          <CharString index="195">
            25.009994506835938 return
          </CharString>
          <CharString index="196">
            281.97999572753906 return
          </CharString>
          <CharString index="197">
            128 -53 89 callgsubr
            -134 36 vhcurveto
            -157 -172 -5 -41 rlineto
            63 -7 41 -68.02000427246094 -86 vvcurveto
            -140 -100 403 callgsubr
            -79 callgsubr
            -22 -13 callsubr
            394 callgsubr
            rlineto
            180 304 callsubr
            217 170 271.02000427246094 vvcurveto
            endchar
          </CharString>
          <CharString index="198">
            666 -20 143.99000549316406 -143.99000549316406 188 362.97999572753906 112 315.010009765625 188 -144.010009765625 144.00999450683594 return
          </CharString>
          <CharString index="199">
            150 -20 118 1318.990005493164 105 return
          </CharString>
          <CharString index="200">
            123.99000549316406 return
          </CharString>
          <CharString index="201">
            rlineto
            175 callsubr
            -16 55.99000549316406 -62 96 callgsubr
            hhcurveto
            151 103 115 30 61 callsubr
            hvcurveto
            -30 64 rlineto
            36 callgsubr
            -51 109 callgsubr
            -12 -22.020004272460938 381 callsubr
            234 callgsubr
            51.02000427246094 7 hvcurveto
            return
          </CharString>
          <CharString index="202">
            -439.99000549316406 140 callgsubr
            return
          </CharString>
          <CharString index="203">
            -90 callsubr
            2 -55 callsubr
            return
          </CharString>
          <CharString index="204">
            -35 87 293 callsubr
            -287.99000549316406 432 -181 -164 rlineto
            return
          </CharString>
          <CharString index="205">
            -60.99000549316406 return
          </CharString>
          <CharString index="206">
            -106.99000549316406 return
          </CharString>
          <CharString index="207">
            18 callsubr
            71 486 callsubr
            186 callsubr
            83 96.99000549316406 2 263 callsubr
            return
          </CharString>
          <CharString index="208">
            -46 -55.99000549316406 -56 callsubr
            -10.009994506835938 447 callsubr
            135 callsubr
            -12 24 52 7 hvcurveto
            127 945.0099945068359 521 callgsubr
            -118.99000549316406 -888 rlineto
            -69.02000427246094 -55 -85 -64 -88 hhcurveto
            -75 -41 35 44 callsubr
            return
          </CharString>
          <CharString index="209">
            303 227 132 callsubr
            248.02000427246094 324 callgsubr
            -115 87 -161 -141 -109 -78.99000549316406 -63 -61 hvcurveto
            return
          </CharString>
          <CharString index="210">
            -72 callsubr
            99 callgsubr
            64 -7 hvcurveto
            -1 181 callgsubr
            -2 41 callgsubr
            -1 -16 -16 vvcurveto
            return
          </CharString>
          <CharString index="211">
            85.00999450683594 return
          </CharString>
          <CharString index="212">
            0 -94 callsubr
            593 123 602.989990234375 106 return
          </CharString>
          <CharString index="213">
            138 46.02000427246094 133 111 158 callsubr
            vvcurveto
            151 -152 94 -258.99000549316406 vhcurveto
            -210 -52 -55 -132 hhcurveto
            return
          </CharString>
          <CharString index="214">
            37.99000549316406 return
          </CharString>
          <CharString index="215">
            89.99000549316406 return
          </CharString>
          <CharString index="216">
            -120.00999450683594 return
          </CharString>
          <CharString index="217">
            -56 callsubr
            -114 -32 -19 callgsubr
            -10 callsubr
            489 callgsubr
            -132.02000427246094 -116.97999572753906 -83 -70 -5 hvcurveto
            -41 callgsubr
            -6 47 -23 51.970001220703125 hhcurveto
            92.02000427246094 43 callgsubr
            64 48 44 hvcurveto
            return
          </CharString>
          <CharString index="218">
            112 callsubr
            108.99000549316406 529.9999847412109 107 -67.00999450683594 109.00999450683594 530.010009765625 -4 callgsubr
            hstemhm
            177.99000549316406 204 305.989990234375 213 124 205 305.010009765625 213.99000549316406 return
          </CharString>
          <CharString index="219">
            59.99000549316406 return
          </CharString>
          <CharString index="220">
            80.02000427246094 return
          </CharString>
          <CharString index="221">
            30.990005493164062 return
          </CharString>
          <CharString index="222">
            -47.99000549316406 return
          </CharString>
          <CharString index="223">
            322.99000549316406 return
          </CharString>
          <CharString index="224">
            331 callgsubr
            102 362 callsubr
            -86 hhcurveto
            303 callsubr
            134 callgsubr
            517 callsubr
            272 callgsubr
            hvcurveto
            return
          </CharString>
          <CharString index="225">
            276 callgsubr
            170 callsubr
            59 callsubr
            -113 return
          </CharString>
          <CharString index="226">
            54 callgsubr
            571.9999847412109 106 491 callgsubr
            1639.990005493164 vstem
            return
          </CharString>
          <CharString index="227">
            135.49000549316406 1258.009994506836 128.49000549316406 return
          </CharString>
          <CharString index="228">
            -20 89 callgsubr
            890.989990234375 161 return
          </CharString>
          <CharString index="229">
            132.99000549316406 return
          </CharString>
          <CharString index="230">
            1214 -23 132 callsubr
            -226.97000122070312 185 callsubr
            823.0000152587891 132 callsubr
            252.00999450683594 122 hstemhm
            1138.990005493164 62 callgsubr
            174.99998474121094 86 618.010009765625 83 hintmask 01111110
            return
          </CharString>
          <CharString index="231">
            -248 83 callgsubr
            -52 callgsubr
            431.99000549316406 116.49000549316406 157.49998474121094 297 -63 118 return
          </CharString>
          <CharString index="232">
            -141.99000549316406 return
          </CharString>
          <CharString index="233">
            137 callgsubr
            endchar
          </CharString>
          <CharString index="234">
            -78 callgsubr
            rlineto
            endchar
          </CharString>
          <CharString index="235">
            hhcurveto
            108.00999450683594 60 82.99000549316406 97.02000427246094 0.9900054931640625 238 callgsubr
            return
          </CharString>
          <CharString index="236">
            294 callsubr
            300.99000549316406 return
          </CharString>
          <CharString index="237">
            -8 -93 callgsubr
            return
          </CharString>
          <CharString index="238">
            94.99000549316406 return
          </CharString>
          <CharString index="239">
            233.97999572753906 return
          </CharString>
          <CharString index="240">
            32.99000549316406 return
          </CharString>
          <CharString index="241">
            64.97999572753906 return
          </CharString>
          <CharString index="242">
            -26.990005493164062 return
          </CharString>
          <CharString index="243">
            -173 -103.02000427246094 -68 -55 vhcurveto
            71 369 callgsubr
            48 48 106 57 -4 callgsubr
            hhcurveto
            100 54 170 callgsubr
            55 callgsubr
            -235.99000549316406 -440.00999450683594 -287 -135.99000549316406 -79 hvcurveto
            return
          </CharString>
          <CharString index="244">
            -315.97999572753906 -52 -17 -89 return
          </CharString>
          <CharString index="245">
            -71 110 38 154 138 68 116 rlinecurve
            -149 127 -280 -348 rlineto
            return
          </CharString>
          <CharString index="246">
            1851.990005493164 rmoveto
            53 99 callsubr
            return
          </CharString>
          <CharString index="247">
            -9 callgsubr
            49 return
          </CharString>
          <CharString index="248">
            -27.020004272460938 return
          </CharString>
          <CharString index="249">
            343 callsubr
            hintmask 11111010
            44 callgsubr
            -199 -234 -111 -137 -7 rrcurveto
            178 15.009994506835938 75 283.00999450683594 176 hhcurveto
            return
          </CharString>
          <CharString index="250">
            -78 callgsubr
            -195.97000122070312 rlineto
            191 hlineto
            -43 callsubr
            195.97000122070312 488 callgsubr
            hlineto
            244 callsubr
            173.02000427246094 -164 -11 259 callgsubr
            242 -193 -19 rlineto
            return
          </CharString>
          <CharString index="251">
            18 callsubr
            71 -70 77 hhcurveto
            115 71 83 -94 callsubr
            2 hvcurveto
            71 -55 callgsubr
            358 callgsubr
            return
          </CharString>
          <CharString index="252">
            -3 116 70 callsubr
            132 callgsubr
            162 hhcurveto
            return
          </CharString>
          <CharString index="253">
            hhcurveto
            -86 -70 -69 -95 -1 hvcurveto
            return
          </CharString>
          <CharString index="254">
            -42 -56 callsubr
            -83 return
          </CharString>
          <CharString index="255">
            -71.99000549316406 return
          </CharString>
          <CharString index="256">
            -90.00999450683594 return
          </CharString>
          <CharString index="257">
            -79.00999450683594 return
          </CharString>
          <CharString index="258">
            1503.990005493164 rmoveto
            -73.99000549316406 -1 60 -70 71.99000549316406 155 callgsubr
            2 -54 -68 callsubr
            return
          </CharString>
          <CharString index="259">
            56 260 callsubr
            74 hhcurveto
            88 93 500 callsubr
            6 hvcurveto
            76 return
          </CharString>
          <CharString index="260">
            rrcurveto
            64 callgsubr
            return
          </CharString>
          <CharString index="261">
            -396 255 callgsubr
            128 219 callsubr
            116 265.99000549316406 vstem
            return
          </CharString>
          <CharString index="262">
            1940.990005493164 rmoveto
            -140 58 -170 246 return
          </CharString>
          <CharString index="263">
            147 callgsubr
            -1 return
          </CharString>
          <CharString index="264">
            -6.9900054931640625 return
          </CharString>
          <CharString index="265">
            147.99000549316406 return
          </CharString>
          <CharString index="266">
            hlineto
            -13 -106 140 return
          </CharString>
          <CharString index="267">
            11 11.020004272460938 vvcurveto
            -186 hlineto
            return
          </CharString>
          <CharString index="268">
            -474.99000549316406 -27 callsubr
            return
          </CharString>
          <CharString index="269">
            1408 83 callgsubr
            185 callsubr
            -106.989990234375 120 callsubr
            -106.010009765625 122 hstemhm
            1138.990005493164 62 callgsubr
            return
          </CharString>
          <CharString index="270">
            57 callgsubr
            -79 callsubr
            32 callsubr
            57 return
          </CharString>
          <CharString index="271">
            -40 -39 -6 hvcurveto
            -93 -13 64 callsubr
            -93 -156 hhcurveto
            return
          </CharString>
          <CharString index="272">
            1 305 callgsubr
            -20 -157 -16 157 callgsubr
            return
          </CharString>
          <CharString index="273">
            1551.990005493164 rmoveto
            -201 152 -86 return
          </CharString>
          <CharString index="274">
            141 callgsubr
            -80 -57 callgsubr
            return
          </CharString>
          <CharString index="275">
            hhcurveto
            37 callsubr
            return
          </CharString>
          <CharString index="276">
            -76 callgsubr
            40 return
          </CharString>
          <CharString index="277">
            -31.009994506835938 return
          </CharString>
          <CharString index="278">
            404 callsubr
            -52 callgsubr
            -2 callsubr
            return
          </CharString>
          <CharString index="279">
            25 11 106 rlineto
            return
          </CharString>
          <CharString index="280">
            rmoveto
            34 -197 106 6 266.02000427246094 12 196 20 rlinecurve
            -388.00999450683594 -41 -184 -223.99000549316406 -214.02000427246094 hhcurveto
            -170.99000549316406 -54 58 41 170 callsubr
            hvcurveto
            return
          </CharString>
          <CharString index="281">
            -33.02000427246094 return
          </CharString>
          <CharString index="282">
            -89.99000549316406 return
          </CharString>
          <CharString index="283">
            102.99000549316406 return
          </CharString>
          <CharString index="284">
            -128 53 -131 134 -36 vhcurveto
            157 172 5 41 rlineto
            -63 7 -41 68 86 vvcurveto
            140 100 148 105 35 vhcurveto
            2 22 -55 91 rlineto
            -180 -74 -217 -170 -270.99000549316406 vvcurveto
            return
          </CharString>
          <CharString index="285">
            434 callgsubr
            475 callgsubr
            271 callsubr
            -177 hlineto
            return
          </CharString>
          <CharString index="286">
            349 callgsubr
            69.97999572753906 return
          </CharString>
          <CharString index="287">
            -11 83 callgsubr
            37 callsubr
            443 callsubr
            return
          </CharString>
          <CharString index="288">
            hvcurveto
            -30 callgsubr
            return
          </CharString>
          <CharString index="289">
            139 callsubr
            189.99000549316406 109 callsubr
            -4 callsubr
            -36 93.99000549316406 463 callgsubr
            return
          </CharString>
          <CharString index="290">
            -29 64 rcurveline
            200 callsubr
            return
          </CharString>
          <CharString index="291">
            30 callsubr
            87 callsubr
            312 callsubr
            return
          </CharString>
          <CharString index="292">
            122.97999572753906 return
          </CharString>
          <CharString index="293">
            70.97999572753906 return
          </CharString>
          <CharString index="294">
            -37.99000549316406 return
          </CharString>
          <CharString index="295">
            203 callsubr
            134 callsubr
            -60 callgsubr
            rlineto
            118 29 153 76 callsubr
            106 vvcurveto
            return
          </CharString>
          <CharString index="296">
            281 callgsubr
            rmoveto
            63 -142 58 -123 57 -6.9799957275390625 rrcurveto
            362 hlineto
            13 244 callgsubr
            -123 37 -45 25 -50 92 99 callsubr
            193 rlinecurve
            -54 99 return
          </CharString>
          <CharString index="297">
            48 -23 -24 callsubr
            547 52 callsubr
            650.0099945068359 112.99000549316406 return
          </CharString>
          <CharString index="298">
            362 callgsubr
            73.00999450683594 477 callgsubr
            rlineto
            17 hlineto
            return
          </CharString>
          <CharString index="299">
            146 899.9799957275391 137 return
          </CharString>
          <CharString index="300">
            hlineto
            -42 callgsubr
            return
          </CharString>
          <CharString index="301">
            hvcurveto
            -62 callsubr
            return
          </CharString>
          <CharString index="302">
            -60 callgsubr
            -1 return
          </CharString>
          <CharString index="303">
            -94 callsubr
            rmoveto
            return
          </CharString>
          <CharString index="304">
            -108.00999450683594 return
          </CharString>
          <CharString index="305">
            28.020004272460938 return
          </CharString>
          <CharString index="306">
            224.99000549316406 return
          </CharString>
          <CharString index="307">
            28 callsubr
            76 callsubr
            937 rlineto
            return
          </CharString>
          <CharString index="308">
            262 hlineto
            82 191 -17 47 hhcurveto
            370.02000427246094 206 callgsubr
            -166 129 -320.97999572753906 -84 -64 71 callgsubr
            -10 -44 hvcurveto
            return
          </CharString>
          <CharString index="309">
            -80 -179 rlineto
            -58 -38 -86 -49 -129 hhcurveto
            -197 -121 216 355 7 hvcurveto
            -9 callgsubr
            -79 callsubr
            -43 callsubr
            1 -30 callsubr
            vhcurveto
            return
          </CharString>
          <CharString index="310">
            -75 30 47 callsubr
            return
          </CharString>
          <CharString index="311">
            0 89 callgsubr
            1284.989990234375 106 hstem
            return
          </CharString>
          <CharString index="312">
            -48 callgsubr
            76 callgsubr
            return
          </CharString>
          <CharString index="313">
            hstem
            81 callsubr
            return
          </CharString>
          <CharString index="314">
            24 -390 159 callgsubr
            return
          </CharString>
          <CharString index="315">
            16.020004272460938 return
          </CharString>
          <CharString index="316">
            323.00999450683594 return
          </CharString>
          <CharString index="317">
            38.99000549316406 return
          </CharString>
          <CharString index="318">
            150 callsubr
            -225 vhcurveto
            491.00999450683594 47 rmoveto
            -133 -88 -35 -88 -76 -68 62 80 124 240 callgsubr
            42 87 198 callgsubr
            64 -58 -82 vhcurveto
            return
          </CharString>
          <CharString index="319">
            -23 121.97000122070312 517.0200042724609 186 callgsubr
            return
          </CharString>
          <CharString index="320">
            -48 callgsubr
            hvcurveto
            return
          </CharString>
          <CharString index="321">
            495 callsubr
            -4.0200042724609375 329 callgsubr
            return
          </CharString>
          <CharString index="322">
            18.979995727539062 96.99000549316406 rmoveto
            -21 callsubr
            return
          </CharString>
          <CharString index="323">
            hstem
            56 callsubr
            vstem
            return
          </CharString>
          <CharString index="324">
            hvcurveto
            -86 -4 56 -59 243 callsubr
            hhcurveto
            88 93 61 116 6 hvcurveto
            76 4 -43 69 return
          </CharString>
          <CharString index="325">
            -28.020004272460938 return
          </CharString>
          <CharString index="326">
            263.97999572753906 return
          </CharString>
          <CharString index="327">
            152.99000549316406 return
          </CharString>
          <CharString index="328">
            1326 1530 rmoveto
            -947.0200042724609 -1530 493 callgsubr
            947 1530 rlineto
            -192.99000549316406 hlineto
            -1148 -475.00999450683594 rmoveto
            return
          </CharString>
          <CharString index="329">
            261 callsubr
            340.99000549316406 -59 callgsubr
            -343 -23 -578 rlineto
            -97 -79 callsubr
            52 -34.970001220703125 113 callsubr
            hhcurveto
            return
          </CharString>
          <CharString index="330">
            149 25 -45 callgsubr
            106 rlineto
            -1409 82 callgsubr
            162 -29 -162 -1259.990005493164 -143.02000427246094 -30 rlineto
            endchar
          </CharString>
          <CharString index="331">
            67.99000549316406 rlinecurve
            -169.99000549316406 417 callgsubr
            return
          </CharString>
          <CharString index="332">
            hhcurveto
            -58 callsubr
            -66 -24 callgsubr
            return
          </CharString>
          <CharString index="333">
            269 callgsubr
            -544.0099945068359 hlineto
            return
          </CharString>
          <CharString index="334">
            289.99000549316406 146.99998474121094 291 return
          </CharString>
          <CharString index="335">
            342 -163 -156 rlineto
            return
          </CharString>
          <CharString index="336">
            -29 230 callgsubr
            return
          </CharString>
          <CharString index="337">
            41 callgsubr
            -41 return
          </CharString>
          <CharString index="338">
            -199.99000549316406 return
          </CharString>
          <CharString index="339">
            300.00999450683594 return
          </CharString>
          <CharString index="340">
            73.02000427246094 return
          </CharString>
          <CharString index="341">
            -242 -23 70 callgsubr
            461 116 320 161.99000549316406 hstem
            -9 callgsubr
            374 callgsubr
            369.00999450683594 293 vstem
            return
          </CharString>
          <CharString index="342">
            106 -63 callsubr
            return
          </CharString>
          <CharString index="343">
            -20 192 callsubr
            return
          </CharString>
          <CharString index="344">
            1917.990005493164 rmoveto
            -196 return
          </CharString>
          <CharString index="345">
            hhcurveto
            -77 -54 31.009994506835938 18 282 callsubr
            hvcurveto
            98 callsubr
            -262 rlineto
            -10 callsubr
            43.970001220703125 71 -11 60 hhcurveto
            return
          </CharString>
          <CharString index="346">
            -247.99000549316406 return
          </CharString>
          <CharString index="347">
            -41.99000549316406 return
          </CharString>
          <CharString index="348">
            -56.02000427246094 return
          </CharString>
          <CharString index="349">
            120.00999450683594 return
          </CharString>
          <CharString index="350">
            74.02000427246094 return
          </CharString>
          <CharString index="351">
            19.009994506835938 return
          </CharString>
          <CharString index="352">
            29 callsubr
            hintmask 11010000
            return
          </CharString>
          <CharString index="353">
            58 -202 253 callsubr
            return
          </CharString>
          <CharString index="354">
            601 342 callsubr
            hstem
            0 2129 vstem
            return
          </CharString>
          <CharString index="355">
            168 25 445 callsubr
            -13 464 callgsubr
            return
          </CharString>
          <CharString index="356">
            228 215 -229 return
          </CharString>
          <CharString index="357">
            1291.979995727539 rmoveto
            return
          </CharString>
          <CharString index="358">
            -77 callgsubr
            hhcurveto
            return
          </CharString>
          <CharString index="359">
            61.99000549316406 77 callsubr
            return
          </CharString>
          <CharString index="360">
            369 rlineto
            -178 251 callgsubr
            return
          </CharString>
          <CharString index="361">
            -93 callgsubr
            592 hlineto
            8 98 return
          </CharString>
          <CharString index="362">
            -59 callgsubr
            vvcurveto
            -98 return
          </CharString>
          <CharString index="363">
            hstem
            75 309.97999572753906 return
          </CharString>
          <CharString index="364">
            8.009994506835938 return
          </CharString>
          <CharString index="365">
            491.99000549316406 return
          </CharString>
          <CharString index="366">
            hvcurveto
            133 930 return
          </CharString>
          <CharString index="367">
            -58.97999572753906 return
          </CharString>
          <CharString index="368">
            148.99000549316406 return
          </CharString>
          <CharString index="369">
            176.99000549316406 return
          </CharString>
          <CharString index="370">
            484 callgsubr
            -80.02000427246094 299 callgsubr
            return
          </CharString>
          <CharString index="371">
            55 callgsubr
            -28 518 callsubr
            149 callgsubr
            -85 -1 callsubr
            240 callsubr
            hvcurveto
            return
          </CharString>
          <CharString index="372">
            vstem
            232.97999572753906 490 callsubr
            17 callgsubr
            return
          </CharString>
          <CharString index="373">
            -2 -23 -24 callsubr
            -47 328.49000549316406 330.50999450683594 147.49000549316406 556.5099945068359 76 callsubr
            return
          </CharString>
          <CharString index="374">
            57 -310.99000549316406 65 callgsubr
            return
          </CharString>
          <CharString index="375">
            501 callsubr
            251 return
          </CharString>
          <CharString index="376">
            -25 -163 -64 callgsubr
            return
          </CharString>
          <CharString index="377">
            0 98 1317.979995727539 106 return
          </CharString>
          <CharString index="378">
            243 callgsubr
            rlineto
            return
          </CharString>
          <CharString index="379">
            -9.020004272460938 return
          </CharString>
          <CharString index="380">
            -211.99000549316406 return
          </CharString>
          <CharString index="381">
            -171.99000549316406 return
          </CharString>
          <CharString index="382">
            288 callgsubr
            75 hlineto
            return
          </CharString>
          <CharString index="383">
            11 11 330 callsubr
            164 callsubr
            return
          </CharString>
          <CharString index="384">
            408 callsubr
            -72 callgsubr
            1156.9700012207031 vstem
            return
          </CharString>
          <CharString index="385">
            52 callgsubr
            369 callsubr
            return
          </CharString>
          <CharString index="386">
            202.99000549316406 -173.99000549316406 return
          </CharString>
          <CharString index="387">
            -273.97999572753906 return
          </CharString>
          <CharString index="388">
            18.979995727539062 return
          </CharString>
          <CharString index="389">
            -23.990005493164062 return
          </CharString>
          <CharString index="390">
            -281.99000549316406 return
          </CharString>
          <CharString index="391">
            162.02000427246094 return
          </CharString>
          <CharString index="392">
            -5.0200042724609375 return
          </CharString>
          <CharString index="393">
            -34 callgsubr
            -157 hhcurveto
            -70 callgsubr
            -26.009994506835938 485 callsubr
            return
          </CharString>
          <CharString index="394">
            -423 -185.99000549316406 1965.990005493164 hstem
            348.99000549316406 194.99000549316406 vstem
            349 1780 rmoveto
            return
          </CharString>
          <CharString index="395">
            1898.990005493164 rmoveto
            -76 callgsubr
            -182 rlineto
            543.9900054931641 hlineto
            20 182 rlineto
            -543.9900054931641 hlineto
            return
          </CharString>
          <CharString index="396">
            163 hstemhm
            1458.990005493164 256 hintmask 10100000
            return
          </CharString>
          <CharString index="397">
            10 -87 64 callsubr
            397 callgsubr
            return
          </CharString>
          <CharString index="398">
            532.0099945068359 rlineto
            return
          </CharString>
          <CharString index="399">
            -36 callgsubr
            -1 return
          </CharString>
          <CharString index="400">
            197 callgsubr
            rcurveline
            return
          </CharString>
          <CharString index="401">
            hstemhm
            108 callgsubr
            return
          </CharString>
          <CharString index="402">
            -23 -37 callgsubr
            return
          </CharString>
          <CharString index="403">
            -240.99000549316406 rlineto
            200.99000549316406 hlineto
            28 352 callgsubr
            3 55 5 54 2 -13 callsubr
            rlinecurve
            return
          </CharString>
          <CharString index="404">
            -176 104 -140 190 259.00999450683594 170 227 219 171.99000549316406 -93 129 -206 vhcurveto
            return
          </CharString>
          <CharString index="405">
            -83 callsubr
            60 -70 72 hhcurveto
            return
          </CharString>
          <CharString index="406">
            93 callsubr
            608 129 566.989990234375 122 return
          </CharString>
          <CharString index="407">
            -88 -325 rlineto
            -47 82 202 260 callsubr
            198 hhcurveto
            return
          </CharString>
          <CharString index="408">
            rmoveto
            -43 -179 rlineto
            -30 37 147 -35 -24 callsubr
            hhcurveto
            return
          </CharString>
          <CharString index="409">
            39.02000427246094 return
          </CharString>
          <CharString index="410">
            -85.02000427246094 return
          </CharString>
          <CharString index="411">
            73.99000549316406 return
          </CharString>
          <CharString index="412">
            142.99000549316406 return
          </CharString>
          <CharString index="413">
            107.00999450683594 return
          </CharString>
          <CharString index="414">
            45 46 40 63 -48 callgsubr
            rlinecurve
            hintmask 11101000
            145 callsubr
            return
          </CharString>
          <CharString index="415">
            747 -17 150 callgsubr
            104 callgsubr
            -94 callsubr
            661.989990234375 137 520 106 return
          </CharString>
          <CharString index="416" raw="1">
            f82b0acf 0af7d40a 3e1d0b 
          </CharString>
          <CharString index="417">
            hhcurveto
            322 callsubr
            68 callsubr
            320 callsubr
            -77 callgsubr
            return
          </CharString>
          <CharString index="418">
            hstemhm
            81 callsubr
            return
          </CharString>
          <CharString index="419">
            370 callgsubr
            -24 vhcurveto
            return
          </CharString>
          <CharString index="420">
            356.99000549316406 299 149.99000549316406 364 177 -129 126 -241.99000549316406 4 hvcurveto
            return
          </CharString>
          <CharString index="421">
            139.00999450683594 -139.00999450683594 167.52000427246094 return
          </CharString>
          <CharString index="422">
            -57 callgsubr
            237 callgsubr
            return
          </CharString>
          <CharString index="423">
            303 callsubr
            hhcurveto
            -58 callsubr
            return
          </CharString>
          <CharString index="424">
            hstemhm
            53 callsubr
            301.99000549316406 return
          </CharString>
          <CharString index="425">
            -25 -165 342 callgsubr
            return
          </CharString>
          <CharString index="426">
            37 callgsubr
            -34 return
          </CharString>
          <CharString index="427">
            -55 callgsubr
            hvcurveto
            return
          </CharString>
          <CharString index="428">
            vvcurveto
            -43 callsubr
            return
          </CharString>
          <CharString index="429">
            108.02000427246094 return
          </CharString>
          <CharString index="430">
            12.990005493164062 return
          </CharString>
          <CharString index="431">
            218.99000549316406 return
          </CharString>
          <CharString index="432">
            -70.99000549316406 return
          </CharString>
          <CharString index="433">
            98.02000427246094 return
          </CharString>
          <CharString index="434">
            261 28 callgsubr
            71 callsubr
            1604.990005493164 vstem
            return
          </CharString>
          <CharString index="435">
            hintmask 11100000
            -56 callsubr
            -111.99000549316406 -25 -125.00999450683594 -2 446 callgsubr
            return
          </CharString>
          <CharString index="436">
            779.9799957275391 rmoveto
            -61 callsubr
            133 callsubr
            63 5 53 hhcurveto
            155.02000427246094 return
          </CharString>
          <CharString index="437">
            vvcurveto
            -186 hlineto
            63 callgsubr
            -13 callgsubr
            return
          </CharString>
          <CharString index="438">
            -87 71 callgsubr
            350 callsubr
            return
          </CharString>
          <CharString index="439">
            -102.99000549316406 return
          </CharString>
          <CharString index="440">
            158.99000549316406 return
          </CharString>
          <CharString index="441">
            42.99000549316406 return
          </CharString>
          <CharString index="442">
            29 47 367.99000549316406 186 193 61 -118.99000549316406 75 -182 52 -115 rlinecurve
            return
          </CharString>
          <CharString index="443">
            -1 callsubr
            -592 rlineto
            172 hlineto
            156.02000427246094 592 rlineto
            -244 hlineto
            endchar
          </CharString>
          <CharString index="444">
            9.990005493164062 -94 callsubr
            return
          </CharString>
          <CharString index="445">
            133.3699951171875 263.49000549316406 return
          </CharString>
          <CharString index="446">
            35 callsubr
            endchar
          </CharString>
          <CharString index="447">
            93 -49 callgsubr
            return
          </CharString>
          <CharString index="448">
            304 callgsubr
            hvcurveto
            return
          </CharString>
          <CharString index="449">
            1415.979995727539 106 return
          </CharString>
          <CharString index="450">
            14 callgsubr
            110 -212 hhcurveto
            39 280 callsubr
            rmoveto
            return
          </CharString>
          <CharString index="451">
            -583 -513 155 1353.979995727539 484 callsubr
            return
          </CharString>
          <CharString index="452">
            308 262 135.97999572753906 257 139 -98 88 -170 421 callsubr
            hvcurveto
            return
          </CharString>
          <CharString index="453">
            -246 -177.99000549316406 -218.99000549316406 -212 hvcurveto
            509.99000549316406 122 rmoveto
            return
          </CharString>
          <CharString index="454">
            132 13 callsubr
            return
          </CharString>
          <CharString index="455">
            -61 198 callsubr
            256 callgsubr
            return
          </CharString>
          <CharString index="456">
            386 callgsubr
            -60 callgsubr
            rlineto
            return
          </CharString>
          <CharString index="457">
            397 callgsubr
            152 hlineto
            return
          </CharString>
          <CharString index="458">
            -10 -93 callgsubr
            return
          </CharString>
          <CharString index="459">
            58.99000549316406 return
          </CharString>
          <CharString index="460">
            154.99000549316406 return
          </CharString>
          <CharString index="461">
            44.99000549316406 return
          </CharString>
          <CharString index="462">
            -35.99000549316406 return
          </CharString>
          <CharString index="463">
            175.99000549316406 return
          </CharString>
          <CharString index="464">
            410 callsubr
            326 callgsubr
            return
          </CharString>
          <CharString index="465">
            142 callgsubr
            11 233.99000549316406 -7 93 rrcurveto
            -83 hlineto
            175 callsubr
            -12 return
          </CharString>
          <CharString index="466">
            253 659.9799957275391 391 callsubr
            hstem
            112.99000549316406 1304 vstem
            return
          </CharString>
          <CharString index="467">
            -57 139 callgsubr
            return
          </CharString>
          <CharString index="468">
            207 callgsubr
            endchar
          </CharString>
          <CharString index="469">
            62 -14 callsubr
            97 1 hvcurveto
            71 -55 callgsubr
            115 callsubr
            57 return
          </CharString>
          <CharString index="470">
            270 callgsubr
            -4 callsubr
            36 194.99000549316406 122 return
          </CharString>
          <CharString index="471">
            -117 rlineto
            -13 callgsubr
            19 -13 callsubr
            -6 198 callsubr
            hhcurveto
            return
          </CharString>
          <CharString index="472">
            rmoveto
            -37 callgsubr
            -93 callgsubr
            return
          </CharString>
          <CharString index="473">
            323.99000549316406 -293.00001525878906 297 return
          </CharString>
          <CharString index="474">
            290.02000427246094 146.97999572753906 291 return
          </CharString>
          <CharString index="475">
            -56 callsubr
            hhcurveto
            return
          </CharString>
          <CharString index="476">
            -19 callsubr
            hhcurveto
            return
          </CharString>
          <CharString index="477">
            hhcurveto
            -4 callgsubr
            return
          </CharString>
          <CharString index="478">
            577.9900054931641 return
          </CharString>
          <CharString index="479">
            -146.99000549316406 return
          </CharString>
          <CharString index="480">
            -317.00999450683594 return
          </CharString>
          <CharString index="481">
            15.990005493164062 return
          </CharString>
          <CharString index="482">
            126.00999450683594 return
          </CharString>
          <CharString index="483">
            114.00999450683594 return
          </CharString>
          <CharString index="484">
            4.9900054931640625 353 callgsubr
            109.99998474121094 284.02000427246094 return
          </CharString>
          <CharString index="485">
            196 400 callsubr
            return
          </CharString>
          <CharString index="486">
            415 callgsubr
            rlineto
            endchar
          </CharString>
          <CharString index="487">
            232 callsubr
            138.00001525878906 442 callgsubr
            hintmask 11011000
            return
          </CharString>
          <CharString index="488">
            hhcurveto
            -72 callsubr
            -42 callgsubr
            return
          </CharString>
          <CharString index="489">
            37 243 221 callgsubr
            84 251 return
          </CharString>
          <CharString index="490">
            283.00999450683594 hstemhm
            114 callgsubr
            return
          </CharString>
          <CharString index="491">
            426 callsubr
            946.0099945068359 hstem
            return
          </CharString>
          <CharString index="492">
            341 -87 57 -321 231 callsubr
            return
          </CharString>
          <CharString index="493">
            vhcurveto
            1 11 0 12 11 vvcurveto
            return
          </CharString>
          <CharString index="494">
            234.99000549316406 return
          </CharString>
          <CharString index="495">
            87.02000427246094 return
          </CharString>
          <CharString index="496">
            -194.99000549316406 return
          </CharString>
          <CharString index="497">
            45.02000427246094 return
          </CharString>
          <CharString index="498">
            212.99000549316406 return
          </CharString>
          <CharString index="499">
            44.02000427246094 return
          </CharString>
          <CharString index="500">
            -206.99000549316406 return
          </CharString>
          <CharString index="501">
            70.99000549316406 return
          </CharString>
          <CharString index="502">
            146 -145 hhcurveto
            return
          </CharString>
          <CharString index="503">
            -87.02000427246094 return
          </CharString>
          <CharString index="504">
            75.97999572753906 return
          </CharString>
          <CharString index="505">
            hstemhm
            744.9799957275391 29 callsubr
            return
          </CharString>
          <CharString index="506">
            32 callsubr
            57 100 callgsubr
            146 callsubr
            return
          </CharString>
          <CharString index="507">
            28 callgsubr
            -62 callsubr
            return
          </CharString>
          <CharString index="508">
            -68 callsubr
            -93 hhcurveto
            -98 return
          </CharString>
          <CharString index="509">
            109.02000427246094 rlineto
            -38 -30 return
          </CharString>
          <CharString index="510">
            0 92 446.99000549316406 100 return
          </CharString>
          <CharString index="511">
            87 244 callsubr
            return
          </CharString>
          <CharString index="512">
            219 callgsubr
            hstem
            return
          </CharString>
          <CharString index="513">
            -498.00999450683594 rlineto
            return
          </CharString>
          <CharString index="514">
            hhcurveto
            -17 callgsubr
            return
          </CharString>
          <CharString index="515">
            -24 callsubr
            hstem
            return
          </CharString>
          <CharString index="516">
            37 callsubr
            329.00999450683594 261 222 vvcurveto
            144 return
          </CharString>
          <CharString index="517">
            105 callsubr
            hstem
            return
          </CharString>
          <CharString index="518">
            -328 -482 -333.99000549316406 49 -149 715 402 rlineto
            return
          </CharString>
          <CharString index="519">
            83 callgsubr
            185 callsubr
            1308.990005493164 122 return
          </CharString>
          <CharString index="520">
            -80 0 98 596.9799957275391 171 529.010009765625 127 return
          </CharString>
          <CharString index="521">
            110 41 callgsubr
            82 hhcurveto
            314 185 146 180 return
          </CharString>
          <CharString index="522">
            196 callsubr
            -22 callgsubr
            return
          </CharString>
          <CharString index="523">
            500 callsubr
            5 hvcurveto
            76 return
          </CharString>
          <CharString index="524">
            805.9900054931641 300.99000549316406 return
          </CharString>
          <CharString index="525">
            -18 -49 callgsubr
            174 rcurveline
            22 return
          </CharString>
          <CharString index="526">
            312.99000549316406 return
          </CharString>
          <CharString index="527">
            272.99000549316406 return
          </CharString>
          <CharString index="528">
            6.9799957275390625 return
          </CharString>
          <CharString index="529">
            252.99000549316406 return
          </CharString>
          <CharString index="530">
            223.99000549316406 return
          </CharString>
          <CharString index="531">
            196.02000427246094 return
          </CharString>
          <CharString index="532">
            -340.00999450683594 return
          </CharString>
          <CharString index="533">
            145.97999572753906 return
          </CharString>
          <CharString index="534">
            -34.02000427246094 return
          </CharString>
          <CharString index="535">
            292.97999572753906 return
          </CharString>
          <CharString index="536">
            25 12 106 rlineto
            return
          </CharString>
          <CharString index="537">
            -95 315 callsubr
            return
          </CharString>
          <CharString index="538">
            141 686 106 hstem
            151 callgsubr
            295.36000061035156 return
          </CharString>
          <CharString index="539">
            228 59 362 260.02000427246094 -72 callgsubr
            vhcurveto
            return
          </CharString>
          <CharString index="540">
            61.99000549316406 37 -46 -98 339 callsubr
          </CharString>
          <CharString index="541">
            163 354 return
          </CharString>
          <CharString index="542">
            65 -74 502 callgsubr
            154 120 106 vvcurveto
            return
          </CharString>
          <CharString index="543">
            -91 rlineto
            180 74 217 170 241 callgsubr
            vvcurveto
            return
          </CharString>
          <CharString index="544">
            258.5800018310547 360.1999969482422 420 callsubr
            return
          </CharString>
          <CharString index="545">
            204 -174 220.99000549316406 return
          </CharString>
          <CharString index="546">
            -201 -1491 492 callsubr
            return
          </CharString>
          <CharString index="547">
            -962.9900054931641 362 callgsubr
            return
          </CharString>
          <CharString index="548">
            hhcurveto
            110 57 -98 -226 5 hvcurveto
            return
          </CharString>
          <CharString index="549">
            295.00999450683594 hintmask 00000000
            return
          </CharString>
          <CharString index="550">
            1289.979995727539 124 return
          </CharString>
          <CharString index="551">
            134 callsubr
            293 return
          </CharString>
          <CharString index="552">
            12 106 rlineto
            -589 hlineto
            return
          </CharString>
          <CharString index="553">
            274 callgsubr
            hstem
            return
          </CharString>
          <CharString index="554">
            72 callgsubr
            hhcurveto
            return
          </CharString>
          <CharString index="555">
            21.990005493164062 vhcurveto
            return
          </CharString>
          <CharString index="556">
            105 rlinecurve
            -160 156 return
          </CharString>
          <CharString index="557">
            -340.99000549316406 return
          </CharString>
          <CharString index="558">
            216.99000549316406 return
          </CharString>
          <CharString index="559">
            215.97999572753906 return
          </CharString>
          <CharString index="560">
            596.9900054931641 return
          </CharString>
          <CharString index="561">
            486.99000549316406 return
          </CharString>
          <CharString index="562">
            191.02000427246094 return
          </CharString>
          <CharString index="563">
            -154.99000549316406 return
          </CharString>
          <CharString index="564">
            -152.99000549316406 return
          </CharString>
          <CharString index="565">
            156.99000549316406 return
          </CharString>
          <CharString index="566">
            460.97999572753906 return
          </CharString>
          <CharString index="567">
            -339 -261 hhcurveto
            return
          </CharString>
          <CharString index="568">
            -101 -167 -245 -123 -180 -223.99000549316406 return
          </CharString>
          <CharString index="569">
            -99.99000549316406 hvcurveto
            -309 291 callgsubr
            return
          </CharString>
          <CharString index="570">
            485 callsubr
            endchar
          </CharString>
          <CharString index="571">
            804 -55 61 -79 callgsubr
            -2 rlineto
            -23 -29 return
          </CharString>
          <CharString index="572">
            87 -1 160.99000549316406 hstem
            333 callgsubr
            return
          </CharString>
          <CharString index="573">
            -10 callsubr
            113 callgsubr
            71 hvcurveto
            29 return
          </CharString>
          <CharString index="574">
            274 callgsubr
            hstemhm
            1067.990005493164 257 return
          </CharString>
          <CharString index="575">
            134 -140 43 vhcurveto
            -145 -140 rlineto
            endchar
          </CharString>
          <CharString index="576">
            -111 372 callsubr
            hhcurveto
            return
          </CharString>
          <CharString index="577">
            -390 -27 -130.99000549316406 return
          </CharString>
          <CharString index="578">
            rmoveto
            -12 callgsubr
            -57 rlineto
            return
          </CharString>
          <CharString index="579">
            1588.979995727539 419 hstem
            return
          </CharString>
          <CharString index="580">
            15.020004272460938 return
          </CharString>
          <CharString index="581">
            995.9799957275391 return
          </CharString>
          <CharString index="582">
            -45.02000427246094 return
          </CharString>
          <CharString index="583">
            614.0099945068359 return
          </CharString>
          <CharString index="584">
            -62.02000427246094 return
          </CharString>
          <CharString index="585">
            208.99000549316406 return
          </CharString>
          <CharString index="586">
            364.99000549316406 return
          </CharString>
          <CharString index="587">
            222.99000549316406 return
          </CharString>
          <CharString index="588">
            256.97999572753906 return
          </CharString>
          <CharString index="589">
            -524 129 return
          </CharString>
          <CharString index="590">
            -75 -579.9900054931641 -179 -30 -11 -98 rlineto
            return
          </CharString>
          <CharString index="591">
            159 363.010009765625 151 callgsubr
            return
          </CharString>
          <CharString index="592">
            -41 callsubr
            -13 callgsubr
            -16 hvcurveto
            return
          </CharString>
          <CharString index="593">
            -70 76.99000549316406 hhcurveto
            44 callsubr
            return
          </CharString>
          <CharString index="594">
            24 -316 -52 -17 -89 return
          </CharString>
          <CharString index="595">
            73.00999450683594 hhcurveto
            return
          </CharString>
          <CharString index="596">
            1390.979995727539 rmoveto
            return
          </CharString>
          <CharString index="597">
            961.9900054931641 rmoveto
            return
          </CharString>
          <CharString index="598">
            hhcurveto
            452 callgsubr
            return
          </CharString>
          <CharString index="599">
            rlineto
            262 hlineto
            return
          </CharString>
          <CharString index="600">
            -62 callsubr
            hvcurveto
            3 -355 -138 return
          </CharString>
          <CharString index="601" raw="1">
            43f8990a 0b  
          </CharString>
          <CharString index="602">
            443 callgsubr
            -107 -5 hvcurveto
            -86 return
          </CharString>
          <CharString index="603">
            -86 -80 -103 141 callgsubr
            -133 hhcurveto
            return
          </CharString>
          <CharString index="604">
            1359.990005493164 40 callsubr
            hstem
            return
          </CharString>
          <CharString index="605">
            176 callgsubr
            rlineto
            240 callsubr
            return
          </CharString>
          <CharString index="606">
            -109 633.0200042724609 rlineto
            -512 hlineto
            return
          </CharString>
          <CharString index="607">
            -49 callgsubr
            116 return
          </CharString>
          <CharString index="608">
            396 callsubr
            240 return
          </CharString>
          <CharString index="609">
            135 53 callgsubr
            return
          </CharString>
          <CharString index="610">
            -32.02000427246094 return
          </CharString>
          <CharString index="611">
            -17.020004272460938 return
          </CharString>
          <CharString index="612">
            247.99000549316406 return
          </CharString>
          <CharString index="613">
            245.99000549316406 return
          </CharString>
          <CharString index="614">
            -156.02000427246094 return
          </CharString>
          <CharString index="615">
            -149.02000427246094 return
          </CharString>
          <CharString index="616">
            281.99000549316406 return
          </CharString>
          <CharString index="617">
            23.990005493164062 return
          </CharString>
          <CharString index="618">
            133.00999450683594 return
          </CharString>
          <CharString index="619">
            753.9900054931641 return
          </CharString>
          <CharString index="620">
            681.9799957275391 return
          </CharString>
          <CharString index="621">
            542.9900054931641 return
          </CharString>
          <CharString index="622">
            76 callsubr
            106 vvcurveto
            hintmask 11100000
            80 return
          </CharString>
          <CharString index="623">
            156 callsubr
            55 -59 return
          </CharString>
          <CharString index="624">
            -41 callgsubr
            -57 callgsubr
            return
          </CharString>
          <CharString index="625">
            395 callsubr
            -10 callgsubr
            return
          </CharString>
          <CharString index="626">
            229 hhcurveto
            302.97999572753906 223 return
          </CharString>
          <CharString index="627">
            115 hstemhm
            515.4799957275391 131 return
          </CharString>
        <CharString name=".notdef">
          595 0 324 callsubr
          973.989990234375 223 hstem
          227.97999572753906 229 960.010009765625 227 vstem
          227.97999572753906 1415.990005493164 rmoveto
          -1415.990005493164 1416.009994506836 1415.990005493164 -1416.009994506836 vlineto
          358.00999450683594 -1197 rmoveto
          -128 144 357.99000549316406 342 -358.99000549316406 363.00999450683594 123 -24 callsubr
          356.99000549316406 -367.99000549316406 352.00999450683594 366 128 -124 -363.00999450683594 -357.99000549316406 363.00999450683594 -368 -122 -122 -362 368 -347 -368 rlineto
          endchar
        </CharString>
        <CharString name="A">
          5 callgsubr
          hstem
          -142 1507 vstem
          674 1521.990005493164 -104 callsubr
        </CharString>
        <CharString name="AE">
          39 callgsubr
          682.9900054931641 96.99000549316406 -82 callsubr
        </CharString>
        <CharString name="AEacute">
          39 callgsubr
          1152.979995727539 1665.990005493164 -77 callsubr
          -470 -1569 -82 callsubr
        </CharString>
        <CharString name="Aacute">
          5 callgsubr
          hstem
          -142 1507 vstem
          733.9799957275391 1665.990005493164 -77 callsubr
          -59.99000549316406 -144 -104 callsubr
        </CharString>
        <CharString name="Abreve">
          5 callgsubr
          1068 405 callsubr
          531.9799957275391 284 callgsubr
          vstem
          531.9900054931641 42 callsubr
          -3.0200042724609375 hvcurveto
          -152 hlineto
          -72 callgsubr
          -19 -1 -56 callsubr
          -19 vvcurveto
          142 -419 -104 callsubr
        </CharString>
        <CharString name="Acircumflex">
          5 callgsubr
          hstem
          -142 1507 vstem
          476 8 callsubr
          198 -146 -104 callsubr
        </CharString>
        <CharString name="Adieresis">
          5 callgsubr
          1127 297 hstem
          454 callsubr
          30 callgsubr
          vstem
          454 callsubr
          -32 callgsubr
          -250 -303 -104 callsubr
        </CharString>
        <CharString name="Agrave">
          5 callgsubr
          hstem
          -142 1507 vstem
          454 callsubr
          182 callsubr
          187 -330 -104 callsubr
        </CharString>
        <CharString name="Amacron">
          5 callgsubr
          1154 182 hstem
          -142 1507 vstem
          576 288 callsubr
          98 -377 -104 callsubr
        </CharString>
        <CharString name="Aogonek">
          70 160 callgsubr
          287 -94 callsubr
          327.989990234375 138 hstemhm
          -142 1507 -639.0099945068359 307 callgsubr
          hintmask 01110000
          674 1521.990005493164 rmoveto
          -677.9900054931641 -1396 -130 -29 130 callsubr
          520 hlineto
          6.9900054931640625 131 callgsubr
          30 133.02000427246094 297.97999572753906 rlineto
          523 hlineto
          43.99000549316406 -298.99000549316406 -156 -29 -5 -93 callgsubr
          227 hlineto
          hintmask 11101000
          -67.00999450683594 -34 148 callsubr
          -42 -68.02000427246094 -95 109 callgsubr
          106 callgsubr
          57 325 callsubr
          120 hhcurveto
          132 -45 callsubr
          -49 callgsubr
          -68 callsubr
          82 callsubr
          hvcurveto
          -31 105 rlineto
          -44 -56 -41 -24 -46.02000427246094 hhcurveto
          -10 callsubr
          170 callsubr
          18 60 2 hvcurveto
          1 63 77 -14 callsubr
          43 callgsubr
          304 callsubr
          rrcurveto
          210 107 callgsubr
          -159 -34 callgsubr
          -250 1393.009994506836 rlineto
          hintmask 01110000
          283 callsubr
          hlineto
          -270.00999450683594 -959 rmoveto
          342 765.9900054931641 10.020004272460938 -159 53 callsubr
          -606.9900054931641 rlineto
          -441 hlineto
          endchar
        </CharString>
        <CharString name="Aring">
          5 callgsubr
          1330 115 hstem
          502.97999572753906 171 331.010009765625 170 vstem
          669.9799957275391 1512.979995727539 rmoveto
          -673.9700012207031 -1386.990005493164 -130 -29 130 callsubr
          520 hlineto
          6.9900054931640625 131 callgsubr
          30 133.02000427246094 297.97999572753906 rlineto
          523 hlineto
          43.99000549316406 -298.99000549316406 -156 -29 -5 -93 callgsubr
          609 107 callgsubr
          -159 -34 callgsubr
          -249 1387.009994506836 rlineto
          120 37 326 callsubr
          87.99000549316406 146 vvcurveto
          138.02000427246094 176 callgsubr
          82.99000549316406 -175 -157.99000549316406 -218 -77.99000549316406 -205 -107 62 148 callsubr
          105 -33 vhcurveto
          457 callgsubr
          254 rmoveto
          -123 -93 -35 -88 -81 -69 55 108 callgsubr
          306 callsubr
          98 43.99000549316406 86 198 callgsubr
          69 -52 -74 vhcurveto
          -601 -1204 rmoveto
          342 765.9900054931641 10.020004272460938 -159 53 callsubr
          -606.9900054931641 rlineto
          -441 hlineto
          endchar
        </CharString>
        <CharString name="Atilde">
          5 callgsubr
          1071.010009765625 -20 callgsubr
          -142 1507 hintmask 00000000
          hintmask 11011000
          477.97999572753906 33 callgsubr
          424 callsubr
          -279 rmoveto
          hintmask 11101000
          -677.9900054931641 -1396 -130 -29 130 callsubr
          520 hlineto
          6.9900054931640625 131 callgsubr
          30 133.02000427246094 297.97999572753906 rlineto
          523 hlineto
          43.99000549316406 -298.99000549316406 -156 -29 -5 -93 callgsubr
          609 107 callgsubr
          -159 -34 callgsubr
          -250 1393.009994506836 rlineto
          hintmask 11011000
          283 callsubr
          hlineto
          hintmask 11101000
          -270.00999450683594 -959 rmoveto
          342 765.9900054931641 10.020004272460938 -159 53 callsubr
          -606.9900054931641 rlineto
          -441 hlineto
          endchar
        </CharString>
        <CharString name="B">
          -74 callgsubr
        </CharString>
        <CharString name="C">
          174 callgsubr
          896 1539.990005493164 -100 callsubr
        </CharString>
        <CharString name="CR">
          endchar
        </CharString>
        <CharString name="Cacute">
          174 callgsubr
          779.9799957275391 311 callgsubr
          -160.02000427246094 156 -276 -342 rlineto
          116.02000427246094 -126 -100 callsubr
        </CharString>
        <CharString name="Ccaron">
          174 callgsubr
          570 40 callgsubr
          326 -409.99000549316406 -100 callsubr
        </CharString>
        <CharString name="Ccedilla">
          -73 callgsubr
        </CharString>
        <CharString name="Ccircumflex">
          174 callgsubr
          521.9900054931641 189 callgsubr
          374.00999450683594 -128 -100 callsubr
        </CharString>
        <CharString name="Cdotaccent">
          180 callsubr
          107 233 callgsubr
          256 callsubr
          339 260 callgsubr
          vstem
          723.9900054931641 -17 callsubr
          -80 23 callgsubr
          -2 hvcurveto
          172.02000427246094 -250 -100 callsubr
        </CharString>
        <CharString name="D">
          197 412 callsubr
          hstem
          1138.990005493164 62 callgsubr
          vstem
          71 callsubr
          96.99000549316406 -89 callsubr
          601 1297 77 callgsubr
        </CharString>
        <CharString name="DC1">
          endchar
        </CharString>
        <CharString name="DC2">
          endchar
        </CharString>
        <CharString name="DC3">
          endchar
        </CharString>
        <CharString name="DC4">
          endchar
        </CharString>
        <CharString name="DEL">
          endchar
        </CharString>
        <CharString name="DLE">
          endchar
        </CharString>
        <CharString name="Dcaron">
          200 412 callsubr
          hstem
          1134.979995727539 232 callsubr
          vstem
          550.9900054931641 -21 callgsubr
          -550.9900054931641 -1852.990005493164 -31 callsubr
        </CharString>
        <CharString name="Dcroat">
          200 -57 callsubr
        </CharString>
        <CharString name="E">
          -5 -54 callsubr
          341 callgsubr
          71 callsubr
          96.99000549316406 -103 callgsubr
        </CharString>
        <CharString name="Eacute">
          -5 -54 callsubr
          341 callgsubr
          706.9900054931641 270 callgsubr
          96.02000427246094 36 194.99000549316406 122 52 105 rlinecurve
          -159.99000549316406 156 -276 -342 rlineto
          -703 -1569 -103 callgsubr
        </CharString>
        <CharString name="Ebreve">
          -5 -54 callsubr
          108.989990234375 405 callsubr
          504.99000549316406 284 callgsubr
          vstem
          505 1940.990005493164 rmoveto
          -140 58 -170 506 callsubr
          199 20 callgsubr
          -501 -1844 -103 callgsubr
        </CharString>
        <CharString name="Ecaron">
          -5 -54 callsubr
          341 callgsubr
          496.99000549316406 1949.979995727539 rmoveto
          215 -339.99000549316406 rlineto
          176 hlineto
          336 385 callsubr
          -216.99000549316406 148 callgsubr
          93 callgsubr
          -58 rlineto
          -493 -1852.990005493164 -103 callgsubr
        </CharString>
        <CharString name="Ecircumflex">
          -5 -54 callsubr
          341 callgsubr
          449.99000549316406 227 callgsubr
          324 callsubr
          145 callgsubr
          -446 -1571 -103 callgsubr
        </CharString>
        <CharString name="Edieresis">
          -5 -54 callsubr
          167.989990234375 297 hstem
          459.97999572753906 367 callsubr
          vstem
          459.97999572753906 39 callsubr
          437 2 rmoveto
          -76 272 callgsubr
          76 callgsubr
          294 callgsubr
          -45 callsubr
          252 callsubr
          -85 -72 -5 callgsubr
          -892.9900054931641 -1728 -103 callgsubr
        </CharString>
        <CharString name="Edotaccent">
          -5 -54 callsubr
          124.989990234375 252 callgsubr
          651.9799957275391 457 callgsubr
          hintmask 00000000
          hintmask 11111000
          651.9799957275391 9 callsubr
          -48 callgsubr
          183 callgsubr
          -647.9900054931641 -1693 -103 callgsubr
        </CharString>
        <CharString name="Egrave">
          -5 -54 callsubr
          341 callgsubr
          459.97999572753906 139 callsubr
          190.02000427246094 109 callsubr
          -42 callsubr
          -36 94 77 rcurveline
          -270 228 callsubr
          -455.99000549316406 -1755 -103 callgsubr
        </CharString>
        <CharString name="Emacron">
          -5 -54 callsubr
          194.989990234375 182 341 callgsubr
          548.9900054931641 27 callsubr
          -544.0099945068359 hlineto
          -545 -1802 -103 callgsubr
        </CharString>
        <CharString name="Eng">
          260 0 -94 callsubr
          1322.989990234375 106 hstem
          -79 callsubr
          1600 vstem
          337 callsubr
          rmoveto
          130 callsubr
          514 195 callgsubr
          98 -174 29 121 1149.990005493164 82 callsubr
          -223 472 -1053.979995727539 -3 -172.99000549316406 -164 116 callgsubr
          -133 -35 rlinecurve
          43 -105 256 -43 callsubr
          210 167 35 239 rlinecurve
          203 1396 133 510 callsubr
          10 106 rlineto
          -477 hlineto
          -12 -106 158 282 callsubr
          -128 -1090 -41 callgsubr
          199 callsubr
          -428.00999450683594 995 rlineto
          -461.99000549316406 hlineto
          504 callsubr
          -106 284 callsubr
          282 callsubr
          -178 -1270 -143 -29 rlineto
          endchar
        </CharString>
        <CharString name="Eogonek">
          6 160 callgsubr
          287 142 -142 403.97999572753906 300.510009765625 171.99000549316406 520.5199890136719 487 callgsubr
          -8 1235 -597.0200042724609 307 callgsubr
          hintmask 01011100
          71 callsubr
          96.99000549316406 50 callsubr
          887.9900054931641 hlineto
          hintmask 10111010
          -41 callgsubr
          -34 -72 -42 -68 -95 -25 106 callgsubr
          273 callgsubr
          325 callsubr
          -52 callgsubr
          hhcurveto
          133 55 callsubr
          -49 callgsubr
          -68 callsubr
          68 hvcurveto
          -10 callsubr
          105 rlineto
          -44 -56 -40 -24 -47 hhcurveto
          -31 63 callgsubr
          18 60 35 callsubr
          1 63 77 -14 callsubr
          101.00999450683594 304 callsubr
          rrcurveto
          94 hlineto
          79 392.99000549316406 -165 22 rlineto
          hintmask 01011100
          -117.99000549316406 -257.99000549316406 -502 -30 80 588.9900054931641 444 -23 122 callgsubr
          -454 -29 73.00999450683594 545.0200042724609 384 169 callsubr
          -209 rlineto
          171 hlineto
          23 344 rlineto
          -1034.020004272461 hlineto
          -11 -106 139 69 callgsubr
          -155 -30 rlineto
          endchar
        </CharString>
        <CharString name="Eth">
          194 -57 callsubr
        </CharString>
        <CharString name="Euro">
          111 83 callgsubr
          305 callsubr
          261 callgsubr
          310.52000427246094 172.47999572753906 142 205.010009765625 141 371 70 callgsubr
          hstemhm
          232.97999572753906 277.00999450683594 hintmask 10111100
          -52 callgsubr
          1041 rmoveto
          -19 -141 rlineto
          153 hlineto
          -12 -64 -8 396 callgsubr
          -72 callgsubr
          -73.02000427246094 rrcurveto
          -182 hlineto
          -36 callgsubr
          -142 rlineto
          148 callgsubr
          hlineto
          -313 23.020004272460938 388 callgsubr
          -255.97000122070312 324.02000427246094 hhcurveto
          139 53 callsubr
          34.970001220703125 88 callsubr
          198 callgsubr
          hvcurveto
          hintmask 01111100
          49 13 57 10 39 -62 callsubr
          48 310 rcurveline
          -131 1 rlineto
          hintmask 10111100
          325 callsubr
          -165 rlineto
          -57 -44 -83 -10 callsubr
          -117.99000549316406 hhcurveto
          -163 -89 -37 callsubr
          272 -11 hvcurveto
          455.99000549316406 hlineto
          13 142 rlineto
          -468.99000549316406 hlineto
          -62 callsubr
          -14 callsubr
          7 69 10 64 rrcurveto
          502 hlineto
          19 141 rlineto
          -491.00999450683594 hlineto
          232 64 121 139 170 hhcurveto
          131.02000427246094 69 -32 -48 callsubr
          46 hvcurveto
          23 -161 rlineto
          122 hlineto
          61 292.99000549316406 504 callsubr
          44 callgsubr
          115 callsubr
          -45 callgsubr
          -24 7 rlinecurve
          23 -72 -86 114 callsubr
          -156 hhcurveto
          -289.02000427246094 -267 -169.99000549316406 -331 -116 hvcurveto
          -173 hlineto
          endchar
        </CharString>
        <CharString name="F">
          413 callsubr
          hstem
          326 callgsubr
          1250.020004272461 vstem
          374 callsubr
          98 27 callgsubr
        </CharString>
        <CharString name="G">
          34 callgsubr
          872.9799957275391 1539.990005493164 -102 callgsubr
          hintmask 11101000
          4 callgsubr
          hintmask 11011000
          361 callsubr
        </CharString>
        <CharString name="Gbreve">
          223 callgsubr
          91 219 callgsubr
          129 callsubr
          200.00999450683594 284 callgsubr
          hintmask 11011110
          578.9900054931641 42 callsubr
          -3 hvcurveto
          -152 hlineto
          -72 callgsubr
          -19 -1 -56 callsubr
          -19 vvcurveto
          428 callgsubr
          -401 -102 callgsubr
          hintmask 11101110
          4 callgsubr
          hintmask 11011110
          361 callsubr
        </CharString>
        <CharString name="Gcaron">
          34 callgsubr
          570.9799957275391 1949.979995727539 rmoveto
          215 -339.99000549316406 rlineto
          176 hlineto
          336 341 -87 57 -320.97999572753906 231 callsubr
          -217 148 callgsubr
          93 callgsubr
          -58 rlineto
          302 -409.99000549316406 -102 callgsubr
          hintmask 11101000
          4 callgsubr
          hintmask 11011000
          361 callsubr
        </CharString>
        <CharString name="Gcircumflex">
          34 callgsubr
          523 35 callgsubr
          219.02000427246094 -216 98.97999572753906 58 475 callgsubr
          26 callsubr
          349.99000549316406 -128 -102 callgsubr
          hintmask 11101000
          4 callgsubr
          hintmask 11011000
          361 callsubr
        </CharString>
        <CharString name="Gcommaaccent">
          223 callgsubr
          129 callsubr
          226.00999450683594 480 callsubr
          hintmask 11011000
          872.9799957275391 1539.990005493164 -102 callgsubr
          hintmask 11101000
          4 callgsubr
          hintmask 11011000
          207 callgsubr
          -341 -2043 471 callsubr
          hintmask 11011100
          83 callsubr
          hintmask 11011000
          -2 127 callsubr
        </CharString>
        <CharString name="Gdotaccent">
          223 callgsubr
          107 319.02000427246094 129 callsubr
          347.00999450683594 260 callgsubr
          hintmask 11011110
          726 100 callsubr
          459 callgsubr
          -250 -102 callgsubr
          hintmask 11101110
          4 callgsubr
          hintmask 11011110
          361 callsubr
        </CharString>
        <CharString name="Gtilde">
          235 callsubr
          94.010009765625 -20 callgsubr
          77.99000549316406 300.99000549316406 hintmask 00000000
          hintmask 11010110
          524.9799957275391 1800.990005493164 rmoveto
          82 callsubr
          -105 107 callsubr
          45 46 40 63 -48 callgsubr
          rlinecurve
          hintmask 11011010
          145 callsubr
          -52 callgsubr
          89 -42 callsubr
          80 31 hvcurveto
          -74 402 callsubr
          -44.02000427246094 -57 -76 hhcurveto
          hintmask 11010110
          104 callgsubr
          -40 319 callgsubr
          -88 -85 -84 -32 hvcurveto
          hintmask 11011010
          348 -261 -102 callgsubr
          hintmask 11101010
          4 callgsubr
          hintmask 11011010
          361 callsubr
        </CharString>
        <CharString name="H">
          325 0 -94 callsubr
          611 119 callsubr
          512 callgsubr
          98 -54 callgsubr
        </CharString>
        <CharString name="HT">
          endchar
        </CharString>
        <CharString name="Hbar">
          325 0 -94 callsubr
          525.989990234375 135 228 136 298 106 hstem
          4.9900054931640625 1636.979995727539 vstem
          861 98 rmoveto
          -12 -98 rlineto
          618.9900054931641 hlineto
          10 -94 callsubr
          355 callgsubr
          31.009994506835938 107 857.9900054931641 rlineto
          192 hlineto
          36 callsubr
          136 rlineto
          -188.99000549316406 hlineto
          35 274 459 callgsubr
          510 callsubr
          12 106 rlineto
          -595.9900054931641 hlineto
          -12 -106 186 callgsubr
          282 callsubr
          -35 -274 rlineto
          -596.9900054931641 hlineto
          35 274 168 510 callsubr
          11 106 rlineto
          480 callgsubr
          hlineto
          -13 -106 139 282 callsubr
          -35 -274 rlineto
          -185 hlineto
          71 callgsubr
          -136 rlineto
          182 hlineto
          197 callsubr
          -858.9900054931641 125 callsubr
          208 callgsubr
          454 callgsubr
          hlineto
          8 98 -167 29 63 455 callgsubr
          rlineto
          453 callsubr
          hlineto
          -62 -494.97999572753906 -179 -30 rlineto
          -339 659.9900054931641 rmoveto
          29 228 rlineto
          597 hlineto
          -29 -228 rlineto
          -597 hlineto
          endchar
        </CharString>
        <CharString name="Hcircumflex">
          325 0 -94 callsubr
          611 119 callsubr
          454 callgsubr
          227 callgsubr
          219 145 callgsubr
          268 -1570 -54 callgsubr
        </CharString>
        <CharString name="I">
          -537 400 callsubr
          450 callgsubr
          vstem
          36 callsubr
          96.99000549316406 -101 callsubr
          endchar
        </CharString>
        <CharString name="IJ">
          378 callsubr
          1514 vstem
          36 callsubr
          96.99000549316406 -26 callgsubr
        </CharString>
        <CharString name="IJ_acutecomb">
          378 callsubr
          1606 vstem
          1172.990005493164 1669.979995727539 rmoveto
          93 -76.99000549316406 -42 callsubr
          36 195 122 52 449 callsubr
          -275.99000549316406 -342.02000427246094 rlineto
          -740 -4 -77 callsubr
          -419 -1569 -26 callgsubr
        </CharString>
        <CharString name="Iacute">
          -537 400 callsubr
          865.9900054931641 vstem
          432.99000549316406 1665.990005493164 -77 callsubr
          -419 -1569 -101 callsubr
          endchar
        </CharString>
        <CharString name="Ibreve">
          -537 -67 callgsubr
          109 405 callsubr
          481 callgsubr
          284 callgsubr
          vstem
          481 callgsubr
          155 callsubr
          198.99000549316406 20 callgsubr
          -217 -1844 -101 callsubr
          endchar
        </CharString>
        <CharString name="Icircumflex">
          -537 400 callsubr
          899.9900054931641 vstem
          174.97999572753906 227 callgsubr
          324 callsubr
          178 callsubr
          425 callsubr
          -339.99000549316406 rlineto
          -161 -1571 -101 callsubr
          endchar
        </CharString>
        <CharString name="Idieresis">
          -537 -67 callgsubr
          168 297 hstem
          219 callgsubr
          227 callsubr
          vstem
          186 -65 callsubr
          -48 57 -86 66 callsubr
          -609 -1728 -101 callsubr
          endchar
        </CharString>
        <CharString name="Idotaccent">
          -29 callgsubr
        </CharString>
        <CharString name="Igrave">
          -537 400 callsubr
          450 callgsubr
          vstem
          186 125 callgsubr
          -269.99000549316406 342 -163 -156 rlineto
          -172 -1755 -101 callsubr
          endchar
        </CharString>
        <CharString name="Imacron">
          -537 -67 callgsubr
          195 182 hstem
          -62 callsubr
          816 vstem
          513 callgsubr
          27 callsubr
          -544.0200042724609 hlineto
          -261 -1802 -101 callsubr
          endchar
        </CharString>
        <CharString name="Iogonek">
          -537 160 callgsubr
          287 -94 callsubr
          1318.989990234375 106 hstemhm
          -23 307 callgsubr
          -242.99000549316406 808.9799957275391 hintmask 11101000
          36 callsubr
          96.99000549316406 49 callsubr
          423 callsubr
          hlineto
          hintmask 11110000
          -41 callgsubr
          -34 -72 -42 -68 -95 -24.979995727539062 106 callgsubr
          56.99000549316406 325 callsubr
          120 hhcurveto
          132 102 -49 callgsubr
          -68 callsubr
          67.99000549316406 hvcurveto
          63 callgsubr
          105 rlineto
          -44 241 callsubr
          -41 -24 -46 hhcurveto
          -10 callsubr
          170 callsubr
          18 60 2 hvcurveto
          1 63 76.99000549316406 -14 callsubr
          101.00999450683594 304 callsubr
          rrcurveto
          208 hlineto
          8 98 -166.99000549316406 29 162.97999572753906 1263.990005493164 164 172 callsubr
          -588 hlineto
          -11.990005493164062 -106 63 callsubr
          50 callgsubr
          rlineto
          hintmask 11101000
          98 callgsubr
          endchar
        </CharString>
        <CharString name="Itilde">
          -537 -67 callgsubr
          112.010009765625 -20 callgsubr
          -62 callsubr
          927 hintmask 00000000
          hintmask 11011000
          262 callsubr
          1800.990005493164 rmoveto
          68 -105 38 45 46 40 63 -0.9900054931640625 rlinecurve
          hintmask 11101000
          144 callgsubr
          hintmask 11011000
          104 callgsubr
          303 callgsubr
          319 callgsubr
          474 callgsubr
          -85 -84 -32 hvcurveto
          hintmask 11101000
          -163 -1704 -101 callsubr
          endchar
        </CharString>
        <CharString name="J">
          -544 342 callsubr
          hstem
          -171 947.9900054931641 vstem
          337.97999572753906 1390.979995727539 -35 callsubr
        </CharString>
        <CharString name="Jcircumflex">
          -544 342 callsubr
          hstem
          -171 1055 vstem
          156 8 callsubr
          181.99000549316406 -277.00999450683594 -35 callsubr
        </CharString>
        <CharString name="K">
          154 28 callgsubr
          323 callgsubr
          1482.990005493164 vstem
          512 callgsubr
          189 callsubr
          231 callgsubr
          227 -64 114 callgsubr
          493 512 rcurveline
          116 24 36 callsubr
          106 rlineto
          -464 hlineto
          -12 -105 127 -78 callgsubr
          -617.9900054931641 -686 53 callsubr
          686 169 172 callsubr
          480 callgsubr
          hlineto
          -13 -106 139 269 callsubr
          -147 208 callgsubr
          600 69 callsubr
          507 callgsubr
          335 callsubr
          endchar
        </CharString>
        <CharString name="Kcommaaccent">
          150 28 callgsubr
          642.9900054931641 223 vstem
          860 189 callsubr
          -113 227 -64 114 callgsubr
          493 512 rcurveline
          116.02000427246094 24 36 callsubr
          106 rlineto
          -464 hlineto
          -12 -105 127 -78 callgsubr
          -618 -686 89 686 169 172 callsubr
          480 callgsubr
          hlineto
          -13 -106 139 269 callsubr
          -147 -30 -10.979995727539062 -93 callgsubr
          599.9799957275391 195 callgsubr
          98 -167 335 callsubr
          -290 -772.9900054931641 336 callgsubr
          241 callsubr
          92 -87 19 vhcurveto
          132 callgsubr
          -10 callgsubr
          -6 -81.02000427246094 rlineto
          39 419 callgsubr
          30 -54 -49 vvcurveto
          -68 -37 -50 -34 -24 vhcurveto
          -79 callgsubr
          127 callsubr
        </CharString>
        <CharString name="L">
          -48 204 callsubr
          326 callgsubr
          1174.020004272461 vstem
          17 98 74 callgsubr
        </CharString>
        <CharString name="LF">
          endchar
        </CharString>
        <CharString name="Lacute">
          -48 204 callsubr
          326 callgsubr
          1174.020004272461 vstem
          454.97999572753906 1667.990005493164 -77 callsubr
          -437.99000549316406 -1570 74 callgsubr
        </CharString>
        <CharString name="Lcaron">
          -48 204 callsubr
          977.9799957275391 211 vstem
          938.9900054931641 1038.990005493164 rmoveto
          99 -30 82 92 60 177 -45 callgsubr
          -27 callsubr
          rlinecurve
          4 388 callsubr
          -9 297 callgsubr
          -4.0200042724609375 -75 rlinecurve
          -5 -112 -18.990005493164062 157 callgsubr
          -21.009994506835938 148 callsubr
          6 -25 rcurveline
          -921.9900054931641 -941 74 callgsubr
        </CharString>
        <CharString name="Lcommaaccent">
          -48 204 callsubr
          472.97999572753906 223 vstem
          17 98 -81 callgsubr
          383 -599 336 callgsubr
          -55.99000549316406 92 396 callsubr
          19 vhcurveto
          -143 -10 callgsubr
          -6 -81.02000427246094 rlineto
          39 419 callgsubr
          30 -54 -49 vvcurveto
          -68 87 callsubr
          -50 427 callsubr
          -24 vhcurveto
          -79 callgsubr
          127 callsubr
        </CharString>
        <CharString name="Ldot">
          -48 0 89 callgsubr
          604.989990234375 322 358 106 hstem
          919.9799957275391 479 callgsubr
          vstem
          17 98 -81 callgsubr
          1080 960 rmoveto
          -1 callsubr
          474 callgsubr
          -70 115 callgsubr
          285 callsubr
          217 callsubr
          -96.99000549316406 hhcurveto
          endchar
        </CharString>
        <CharString name="Lslash">
          -48 -79 callsubr
          131 1285 106 hstem
          326 callgsubr
          1174.020004272461 vstem
          234 callgsubr
          600.9900054931641 rmoveto
          36 -118.00999450683594 151 61 -53 -415 125 callsubr
          -29 -11.020004272460938 -98 rlineto
          1074.009994506836 hlineto
          100 513 -152 23 -178 -397 -407 -16 69.02000427246094 542 401 163 -35 127 -347.02000427246094 -145 75 581 185.02000427246094 25 11.979995727539062 106 rlineto
          -607.9900054931641 193 callgsubr
          -91 -706 -206 -86 rlineto
          endchar
        </CharString>
        <CharString name="M">
          678 0 98 1302.990005493164 121 hstem
          418 callgsubr
          vstem
          -61 98 -85 callgsubr
        </CharString>
        <CharString name="N">
          261 0 96.99000549316406 1318.989990234375 106 hstem
          3.9900054931640625 1604.990005493164 -3 callsubr
          endchar
        </CharString>
        <CharString name="NULL">
          endchar
        </CharString>
        <CharString name="Nacute">
          327 callsubr
          812.9900054931641 46 callgsubr
          -801.0099945068359 -1569 -99 callgsubr
          endchar
        </CharString>
        <CharString name="Ncaron">
          327 callsubr
          602.9900054931641 -21 callgsubr
          -591.0099945068359 -1852.990005493164 -99 callgsubr
          endchar
        </CharString>
        <CharString name="Ncommaaccent">
          261 28 callgsubr
          619.9900054931641 223 -3 callsubr
          535 -600 471 callsubr
          404 callsubr
          96 callgsubr
          -12 callsubr
          241 callsubr
          31 callgsubr
          -143 -10 callgsubr
          -6 -81 rlineto
          39 78 callsubr
          -37 312 callsubr
          -2 127 callsubr
        </CharString>
        <CharString name="Ntilde">
          261 -67 callgsubr
          112.010009765625 -20 callgsubr
          71 callsubr
          1604.990005493164 hintmask 00000000
          hintmask 11011000
          556.9900054931641 253 callgsubr
          hintmask 11101000
          -3 116 61 callsubr
          132 callgsubr
          162 hhcurveto
          96 callgsubr
          89 -42 callsubr
          80 114 callsubr
          hvcurveto
          -74 368 callgsubr
          hintmask 11011000
          -101 -40 319 callgsubr
          -88 -85 -84 -10 callsubr
          hvcurveto
          hintmask 11101000
          -545.0099945068359 -1704 -99 callgsubr
          endchar
        </CharString>
        <CharString name="O">
          17 callsubr
          hstem
          87 301.99000549316406 682.989990234375 305 vstem
          832.9799957275391 1541.979995727539 -82 callgsubr
        </CharString>
        <CharString name="OE">
          929 -20 121 -101 142 560.4799957275391 173.00999450683594 521.510009765625 -24 callsubr
          -106.010009765625 125 hstemhm
          88 callgsubr
          298 hintmask 00000000
          hintmask 10101100
          835.9900054931641 1541 rmoveto
          -482 -279 -417.02000427246094 -494 4 hvcurveto
          -385 -62 callsubr
          186 -264.97999572753906 368 hhcurveto
          218 162 85.99000549316406 137 158 callgsubr
          hvcurveto
          hintmask 01110100
          109 callgsubr
          -203 rlineto
          985.9900054931641 hlineto
          68 384 -164.99000549316406 61 callsubr
          197 callsubr
          -248 -484.99000549316406 -30 76.99000549316406 588.9900054931641 418.02000427246094 -27 28 204 -431 -35 74 549.0099945068359 365 -76 callgsubr
          40.02000427246094 -200 rlineto
          210 callgsubr
          hlineto
          23 335.02000427246094 rlineto
          -873 hlineto
          -30 -239 rlineto
          hintmask 10101100
          353 callsubr
          148 callsubr
          -134 103.02000427246094 -221 hhcurveto
          252 -667.0200042724609 rmoveto
          -62 callsubr
          -435 -157 -339 -269 1 -228 1 -57 264 -72 callgsubr
          309.97999572753906 rrcurveto
          392.00999450683594 -4.0200042724609375 172 348 261 hhcurveto
          193 87 -184 -358.00999450683594 2 hvcurveto
          endchar
        </CharString>
        <CharString name="Oacute">
          239 callgsubr
          752.9900054931641 1665.990005493164 -77 callsubr
          82 -124 -98 callsubr
        </CharString>
        <CharString name="Obreve">
          17 callsubr
          88.99998474121094 405 callsubr
          53 callsubr
          301.99000549316406 160.00999450683594 284 callgsubr
          367.00999450683594 304.97999572753906 vstem
          550.9900054931641 155 callsubr
          198.99000549316406 20 callgsubr
          284 -399.00999450683594 -98 callsubr
        </CharString>
        <CharString name="Ocircumflex">
          17 callsubr
          hstem
          87 301.99000549316406 682.989990234375 305 vstem
          494 35 callgsubr
          324 callsubr
          -216 99 58 -210.99000549316406 26 callsubr
          338.99000549316406 375 callgsubr
          -82 callgsubr
        </CharString>
        <CharString name="Odieresis">
          17 callsubr
          147.99998474121094 297 317 callsubr
          115.00999450683594 227 callsubr
          -159.989990234375 304.97999572753906 hintmask 11111010
          506 78 callgsubr
          72.00999450683594 163 callsubr
          -86 hhcurveto
          100 callgsubr
          -70 -69 -95 213 callsubr
          hintmask 11111100
          436.99000549316406 2 rmoveto
          -76 205 callsubr
          72 95 callgsubr
          320 callsubr
          71 1 -48 57 -86 66 callsubr
          hintmask 11111010
          -107.99000549316406 -283.00999450683594 -98 callsubr
        </CharString>
        <CharString name="Ograve">
          239 callgsubr
          506 125 callgsubr
          -269.99000549316406 342 -163 -156 rlineto
          329 -310 -98 callsubr
        </CharString>
        <CharString name="Ohungarumlaut">
          17 callsubr
          hstem
          87 301.99000549316406 682.989990234375 305 vstem
          517 21 callgsubr
          -94 callsubr
          138 callsubr
          508 callsubr
          -118 -82 callgsubr
        </CharString>
        <CharString name="Omacron">
          17 callsubr
          174.99998474121094 182 216 callsubr
          594.9799957275391 27 callsubr
          -544.0200042724609 hlineto
          240 -357 -98 callsubr
        </CharString>
        <CharString name="Oslash">
          152 -18 121 1316.979995727539 124 216 callsubr
          834.9900054931641 1543.990005493164 rmoveto
          -478 -272 -420 -493 4 hvcurveto
          1 -209 56 -185 242 callsubr
          -118 -145 -222.97999572753906 rcurveline
          240 callgsubr
          -52 136 209.97999572753906 rlineto
          -46 76 131 callsubr
          -72 callsubr
          114.02000427246094 hhcurveto
          258 callsubr
          258 432.99000549316406 488 -4.0200042724609375 hvcurveto
          -79 callgsubr
          212 -61 194.99000549316406 -136.99000549316406 118 139 214 rcurveline
          149 callsubr
          51.02000427246094 -134 -208.02000427246094 rlineto
          38.02000427246094 325 callsubr
          100 callgsubr
          61 callsubr
          -10 callgsubr
          hhcurveto
          -406 -1209 rmoveto
          -78 callgsubr
          240 callgsubr
          -11 110 -1 376 callsubr
          rrcurveto
          415.99000549316406 -72 callgsubr
          434 callsubr
          254 hhcurveto
          99 callgsubr
          112 callsubr
          187 callsubr
          -69 43 hvcurveto
          -558 -978 rlineto
          645 547 rmoveto
          -440 4 -155 460 callsubr
          -88 211 callgsubr
          142 callgsubr
          113 callsubr
          -43 hvcurveto
          560.9900054931641 985.9900054931641 29 -88 220 callgsubr
          476 callgsubr
          1 -134 rlinecurve
          endchar
        </CharString>
        <CharString name="Otilde">
          17 callsubr
          92.00999450683594 -20 callgsubr
          56 callsubr
          hintmask 11011100
          496.99000549316406 253 callgsubr
          hintmask 11101100
          144 callgsubr
          hintmask 11011100
          104 callgsubr
          303 callgsubr
          319 callgsubr
          474 callgsubr
          -85 -84 -32 hvcurveto
          338 -259.00999450683594 -98 callsubr
        </CharString>
        <CharString name="P">
          -51 callgsubr
        </CharString>
        <CharString name="Q">
          153 -403 222 161 49 callgsubr
          hstem
          86 301.99000549316406 215.5800018310547 167.4199981689453 299.989990234375 305 vstem
          832 1541.979995727539 rmoveto
          -478 -272.02000427246094 -419.99000549316406 -493.02000427246094 4.0200042724609375 194 callsubr
          -356.99000549316406 159 -286.97999572753906 372 285 callsubr
          rrcurveto
          -250 -67.00999450683594 139.02000427246094 -133 280.97999572753906 hhcurveto
          163 126.02000427246094 59 40 51 hvcurveto
          -2 164 rlineto
          135 callsubr
          -23 callgsubr
          -123 71 callgsubr
          -57 hhcurveto
          507 callsubr
          -128 15.009994506835938 333 callsubr
          293 callgsubr
          399.99000549316406 304 callsubr
          208 395 -72 callgsubr
          439.00999450683594 rrcurveto
          344 -72 callgsubr
          -157 296.97999572753906 -384 491 callsubr
          138 callgsubr
          44 callgsubr
          -155.02000427246094 460 callsubr
          -201.99000549316406 141 callgsubr
          260 287 293 callgsubr
          282 callgsubr
          -3 434 callsubr
          254.02000427246094 hhcurveto
          185 361 callgsubr
        </CharString>
        <CharString name="R">
          129 178 callgsubr
          1014.9799957275391 293 vstem
          23.979995727539062 96.99000549316406 -53 callsubr
        </CharString>
        <CharString name="RS">
          endchar
        </CharString>
        <CharString name="Racute">
          129 178 callgsubr
          1014.9799957275391 293 vstem
          762.9799957275391 1665.990005493164 -77 callsubr
          -739 -1569 -53 callsubr
        </CharString>
        <CharString name="Rcaron">
          124 178 callgsubr
          1010.9900054931641 428 callsubr
          vstem
          521.9900054931641 -21 callgsubr
          -502 -1852.990005493164 -56 callgsubr
          endchar
        </CharString>
        <CharString name="Rcommaaccent">
          124 178 callgsubr
          632.9900054931641 480 callsubr
          155.00999450683594 428 callsubr
          vstem
          -50 callgsubr
          96.99000549316406 -56 callgsubr
          -135 -1294.990005493164 471 callsubr
          171 callsubr
          39 78 callsubr
          -37 312 callsubr
          -2 127 callsubr
        </CharString>
        <CharString name="S">
          6 callgsubr
          53 callgsubr
          372 7 callgsubr
          -103 callsubr
          -167 hlineto
          endchar
        </CharString>
        <CharString name="Sacute">
          6 callgsubr
          614.9900054931641 46 callgsubr
          -531 -1293.990005493164 7 callgsubr
          -103 callsubr
          -167 hlineto
          endchar
        </CharString>
        <CharString name="Scaron">
          6 callgsubr
          422 callgsubr
          -21 callgsubr
          -321 -1577.990005493164 7 callgsubr
          -103 callsubr
          -167 hlineto
          endchar
        </CharString>
        <CharString name="Scedilla">
          -154 161 callsubr
          289.00999450683594 121.97000122070312 1318.010009765625 122 496 callgsubr
          -45.99000549316406 165 202 241 callgsubr
          hintmask 00000000
          hintmask 11110100
          686.9799957275391 1419 rmoveto
          73.00999450683594 54 -19 -32 43.99000549316406 hvcurveto
          29 -190 rlineto
          154 hlineto
          50 285 rlineto
          37 -60 -117 41 -205.99000549316406 hhcurveto
          -298 -234 -162.02000427246094 -269.97999572753906 341 callsubr
          1 -212 159.99000549316406 -134 171 -107.99000549316406 163.97999572753906 -104 93.02999877929688 -1 callsubr
          -4.0200042724609375 132 callgsubr
          rrcurveto
          -143 -4 -118 -80 -167 hhcurveto
          -87 -71 30 37 -70 callgsubr
          hvcurveto
          -16.020004272460938 204 rlineto
          -167 hlineto
          -52 -301.02000427246094 rlineto
          hintmask 11101100
          41 -10 callsubr
          147 -47 173 -12 -62 callsubr
          109 callgsubr
          2 -29 -1 489 callgsubr
          -138 -3.9900054931640625 485 callgsubr
          170 callsubr
          54 callsubr
          53 -13 callgsubr
          63 -41 callsubr
          390 callsubr
          hvcurveto
          315.97999572753906 22.979995727539062 181 192 -79 callgsubr
          245 -2 206 -154 123 -164.99000549316406 104 rrcurveto
          hintmask 11110100
          -171 114 callgsubr
          -100 89.00999450683594 -37 callsubr
          vvcurveto
          128 110 69.02000427246094 134 vhcurveto
          endchar
        </CharString>
        <CharString name="Scircumflex">
          6 callgsubr
          356.99000549316406 227 callgsubr
          324 callsubr
          145 callgsubr
          -273 -1296 7 callgsubr
          -103 callsubr
          -167 hlineto
          endchar
        </CharString>
        <CharString name="Scommaaccent">
          -154 -23 93 callsubr
          1318 122 496 callgsubr
          -40.99000549316406 223 139 241 callgsubr
          hintmask 11101000
          53 callgsubr
          372 7 callgsubr
          -103 callsubr
          -167 hlineto
          245 -875 rmoveto
          108 callsubr
          -57 rlineto
          hintmask 11011000
          388 callsubr
          244 callsubr
          -52 callgsubr
          -12 callsubr
          -55.99000549316406 31 callgsubr
          -143.02000427246094 -10 callgsubr
          -6 -81 rlineto
          302 callsubr
          -6 199 callgsubr
          184 callsubr
          hintmask 11101000
          -2 127 callsubr
        </CharString>
        <CharString name="T">
          72 0 427 callgsubr
          1282.490005493164 435 callgsubr
          199 callsubr
          244 callgsubr
          -84 callgsubr
          endchar
        </CharString>
        <CharString name="Tbar">
          75 0 427 callgsubr
          584.4900054931641 37 callsubr
          556.0099945068359 435 callgsubr
          331.97999572753906 839.9900054931641 rmoveto
          -16 125 callsubr
          rlineto
          481 callgsubr
          hlineto
          -60 callgsubr
          -571 -248 141 callsubr
          257 callgsubr
          802 48 callsubr
          243 callsubr
          571 rlineto
          266 hlineto
          16 37 callsubr
          rlineto
          -263 hlineto
          243 callsubr
          568.0200042724609 188 callgsubr
          -24 7 -395 261 callsubr
          -55 callgsubr
          77 291 callsubr
          -1268 hlineto
          149 callsubr
          -533 156.02000427246094 -55 callgsubr
          133 394.02000427246094 274 24 43 callsubr
          -568.0200042724609 rlineto
          -233 hlineto
          endchar
        </CharString>
        <CharString name="Tcaron">
          278 callgsubr
          hstem
          397 callsubr
          1358 vstem
          519.9900054931641 1949.979995727539 rmoveto
          215 -339.99000549316406 rlineto
          176 hlineto
          336 385 callsubr
          -216.99000549316406 148 callgsubr
          93 callgsubr
          -58 rlineto
          -295 -1850 -84 callgsubr
          endchar
        </CharString>
        <CharString name="Thorn">
          -1 0 -94 callsubr
          245 52 callsubr
          608.9999847412109 125 217.010009765625 114 callgsubr
          hstem
          979.9799957275391 294.00999450683594 vstem
          281 callsubr
          415 callsubr
          601.9900054931641 hlineto
          257 callsubr
          98 -174 29 28 324 callsubr
          rlineto
          -2 28 38 -79 callgsubr
          74 hhcurveto
          482 184.02000427246094 245 262.97999572753906 -5 hvcurveto
          200 -3 -111 152 -365 hhcurveto
          -70 -73.00999450683594 -5 -6 -69 hvcurveto
          -43 callsubr
          204 168 24 12 114 callgsubr
          321 callgsubr
          86 callgsubr
          99 callsubr
          140 -24 -164 -1268 -142 -30 rlineto
          547 964 rmoveto
          10 354 callsubr
          56.02000427246094 6 43.99000549316406 hhcurveto
          189 76 -86 -175 4 hvcurveto
          -223.99000549316406 7 -143 -124 -221.99000549316406 hhcurveto
          -46 303 callgsubr
          0 4 -46 hvcurveto
          76 589 rlineto
          endchar
        </CharString>
        <CharString name="U">
          92 callsubr
          hstem
          151 callgsubr
          280 vstem
          333 callsubr
          593 -104 callgsubr
        </CharString>
        <CharString name="US">
          endchar
        </CharString>
        <CharString name="Uacute">
          92 callsubr
          hstem
          151 callgsubr
          280 vstem
          797.9799957275391 1665.990005493164 -77 callsubr
          -639 -1072.990005493164 -104 callgsubr
        </CharString>
        <CharString name="Ubreve">
          92 callsubr
          108.989990234375 405 callsubr
          151 callgsubr
          280 164 284 callgsubr
          vstem
          454 callgsubr
          42 callsubr
          -3.0200042724609375 hvcurveto
          -152 hlineto
          -72 callgsubr
          -19 -1 -56 callsubr
          -19 vvcurveto
          -437 -1348 -104 callgsubr
        </CharString>
        <CharString name="Ucircumflex">
          92 callsubr
          hstem
          151 callgsubr
          280 vstem
          541 35 callgsubr
          219 -216 99 58 -210.99000549316406 26 callsubr
          -382.00999450683594 -1075 -104 callgsubr
        </CharString>
        <CharString name="Udieresis">
          92 callsubr
          167.989990234375 297 hstem
          151 callgsubr
          280 119.010009765625 30 callgsubr
          vstem
          550.9900054931641 -32 callgsubr
          -829.0099945068359 -1232 -104 callgsubr
        </CharString>
        <CharString name="Ugrave">
          92 callsubr
          hstem
          151 callgsubr
          280 vstem
          550.9900054931641 182 callsubr
          -392 -1258.990005493164 -104 callgsubr
        </CharString>
        <CharString name="Uhungarumlaut">
          92 callsubr
          hstem
          151 callgsubr
          280 vstem
          564 21 callgsubr
          97 138 callsubr
          -870.0099945068359 -1066.990005493164 -104 callgsubr
        </CharString>
        <CharString name="Umacron">
          92 callsubr
          194.989990234375 182 hstem
          151 callgsubr
          280 vstem
          640 288 callsubr
          -481.02000427246094 -1305.990005493164 -104 callgsubr
        </CharString>
        <CharString name="Uogonek">
          150 160 callgsubr
          267 118 1318.990005493164 105 hstemhm
          151 callgsubr
          280 47 307 callgsubr
          hintmask 01110000
          333 callsubr
          593 rmoveto
          -6 -59 -79 callgsubr
          -54 -55 callgsubr
          -52 rrcurveto
          -261 2 154 -187 345.99000549316406 4 5.0200042724609375 1 5 hhcurveto
          hintmask 11111000
          -53 -38.99000549316406 -53 -49 -45 -69 -24 -32.99000549316406 -13 -50 -1 -36 320 callgsubr
          -1 273 callgsubr
          325 callsubr
          -52 callgsubr
          hhcurveto
          133 105 -49 callgsubr
          -68 callsubr
          65 hvcurveto
          -10 callsubr
          105 rlineto
          -44 -54 -42 -24 -47 hhcurveto
          -31 63 callgsubr
          23 61 35 callsubr
          54 58 88 callgsubr
          73.00999450683594 -19 callsubr
          vhcurveto
          235 61 388 callgsubr
          508 callgsubr
          49 375.00999450683594 100 764.9900054931641 rcurveline
          127 88 callsubr
          13 105 rlineto
          -451.00999450683594 hlineto
          -11 -105 142 -78 callgsubr
          -103.02000427246094 -764.9900054931641 rlineto
          -341 -48 callsubr
          -112 -187 -237 hhcurveto
          hintmask 01110000
          -172 -58 callsubr
          121 200.99000549316406 -2 hvcurveto
          52 6 82 callsubr
          -61 callsubr
          76.99000549316406 vhcurveto
          -45 callsubr
          774 177 -43 callsubr
          11 105 rlineto
          -600 159 callsubr
          -24 -105 -798.9900054931641 rlineto
          endchar
        </CharString>
        <CharString name="Uring">
          92 callsubr
          101.989990234375 115.00999450683594 254.00001525878906 115 hstem
          151 callgsubr
          280 155.010009765625 210 callgsubr
          330.99998474121094 170 vstem
          587 1844.979995727539 rmoveto
          -144 120 -77 188 174 190 84.00999450683594 199 70 callgsubr
          -122 71 -175 -158 -216.99000549316406 -65.99000549316406 -197.02000427246094 vhcurveto
          501.99000549316406 42 rmoveto
          -117 -94 63 callgsubr
          -87 -81 -69 142 callgsubr
          74 326 callsubr
          398 callgsubr
          33 86 79 69 -38.02000427246094 396 callgsubr
          vhcurveto
          -930 -1293.990005493164 -104 callgsubr
        </CharString>
        <CharString name="Utilde">
          92 callsubr
          112 -20 callgsubr
          151 callgsubr
          280 hintmask 00000000
          hintmask 11011000
          541.9799957275391 33 callgsubr
          hintmask 11101000
          -383 -1208 -104 callgsubr
        </CharString>
        <CharString name="V">
          -41 342 callsubr
          hstem
          -50 callgsubr
          1400.990005493164 vstem
          151 489 callsubr
          94 callgsubr
          -1405.9700012207031 244 5 650 1401.9700012207031 131 24 37 callgsubr
          106 rlineto
          -482 hlineto
          -10 -106 158 -25 -407 -908 -88 -238.97999572753906 -23 452 callgsubr
          -121 908 157 25 10 106 rlineto
          -583 hlineto
          -12 -105 131 127 callsubr
        </CharString>
        <CharString name="W">
          247 callsubr
          221 callgsubr
          1390.979995727539 -96 callsubr
        </CharString>
        <CharString name="Wacute">
          247 callsubr
          1000.9799957275391 311 callgsubr
          -160 156 -276 -342 rlineto
          -868.9900054931641 -275 -96 callsubr
        </CharString>
        <CharString name="Wcircumflex">
          247 callsubr
          744 8 callsubr
          -612 -277.00999450683594 -96 callsubr
        </CharString>
        <CharString name="Wdieresis">
          601 342 callsubr
          168 297 hstem
          512 callsubr
          30 callgsubr
          vstem
          512 callsubr
          -16 callgsubr
          285 callgsubr
          -1 55 -59 251 callsubr
          55 callsubr
          62 77 callsubr
          303 callsubr
          148 callsubr
          -5 callgsubr
          -1059 -434.00999450683594 -96 callsubr
        </CharString>
        <CharString name="Wgrave">
          247 callsubr
          512 callsubr
          139 callsubr
          190 109 callsubr
          -4 callsubr
          -36 503 callgsubr
          77 rcurveline
          -269.97999572753906 228 callsubr
          -622 -461 -96 callsubr
        </CharString>
        <CharString name="X">
          65 0 98 1317.979995727539 24 callgsubr
          623 195 callgsubr
          98 -137.99000549316406 29 -40 callgsubr
        </CharString>
        <CharString name="Y">
          92 callgsubr
          221 98 -96 callgsubr
        </CharString>
        <CharString name="Yacute">
          92 callgsubr
          709 46 callgsubr
          -488 -1567.990005493164 -96 callgsubr
        </CharString>
        <CharString name="Ycircumflex">
          92 callgsubr
          450.99000549316406 227 callgsubr
          219 434 callgsubr
          -211 271 callsubr
          135 callgsubr
          hlineto
          -340 -339.99000549316406 rlineto
          -230 -1570 -96 callgsubr
        </CharString>
        <CharString name="Ydieresis">
          -32 270 callsubr
          168 297 hstem
          461.97999572753906 289.99000549316406 147.02000427246094 291 vstem
          461.99000549316406 -16 callgsubr
          285 callgsubr
          -1 55 -59 251 callsubr
          55 callsubr
          62 29 callgsubr
          -678 -1727 -96 callgsubr
        </CharString>
        <CharString name="Ygrave">
          92 callgsubr
          461.99000549316406 139 callsubr
          189.99000549316406 109 callsubr
          -4 callsubr
          -36 94 77 rcurveline
          -270.00999450683594 228 callsubr
          -240.99000549316406 -1753.990005493164 -96 callgsubr
        </CharString>
        <CharString name="Z">
          -66 0 120 callsubr
          hstem
          -32 1292 vstem
          -32 53 callsubr
          -49 callsubr
        </CharString>
        <CharString name="Zacute">
          -66 0 120 callsubr
          hstem
          -32 1292 vstem
          658.9799957275391 1665.990005493164 -77 callsubr
          -690.9900054931641 -1577 -49 callsubr
        </CharString>
        <CharString name="Zcaron">
          -66 0 120 callsubr
          hstem
          -32 1292 vstem
          448 40 callgsubr
          -480.00999450683594 -1861 -49 callsubr
        </CharString>
        <CharString name="Zdotaccent">
          -66 0 120 callsubr
          124.989990234375 252 callgsubr
          602.9900054931641 260 callgsubr
          hintmask 00000000
          hintmask 11110000
          602.9900054931641 -17 callsubr
          -80 23 callgsubr
          -2 hvcurveto
          -635 -1701 -49 callsubr
        </CharString>
        <CharString name="a">
          0 callsubr
          738.9799957275391 1163 -102 callsubr
        </CharString>
        <CharString name="aacute">
          0 callsubr
          634 169 callgsubr
          85 38 callsubr
          -316.99000549316406 -431 rlineto
          104.97999572753906 123 callgsubr
          -102 callsubr
        </CharString>
        <CharString name="abreve">
          -80 209 callgsubr
          -52 callsubr
          137 219 callgsubr
          13 callsubr
          98.99000549316406 152 hintmask 01111100
          453 121 callgsubr
          115 177 157 10 386 callsubr
          372 callsubr
          hlineto
          -71 -12 -30 -111 -147 hhcurveto
          305 callgsubr
          -78 callgsubr
          99 callgsubr
          64 -7 hvcurveto
          -48 callgsubr
          181 callgsubr
          -2 41 callgsubr
          -48 callgsubr
          -16 -16 vvcurveto
          285.97999572753906 -458 -74 callsubr
          hintmask 10111100
          -100 callgsubr
          hintmask 01111100
          19 -59 -88 -27 callgsubr
          196 callgsubr
          -99 callsubr
        </CharString>
        <CharString name="acircumflex">
          0 callsubr
          378.97999572753906 91 callgsubr
          360 -128.99000549316406 -102 callsubr
        </CharString>
        <CharString name="acute">
          -718 1239.979995727539 503 hstem
          113 callgsubr
          454 callsubr
          vstem
          113 callgsubr
          169 callgsubr
          242 callgsubr
          -33 callsubr
          endchar
        </CharString>
        <CharString name="acute.cap">
          -750 472 callsubr
          390 callgsubr
          435.99000549316406 vstem
          390 callgsubr
          1665.990005493164 -77 callsubr
          endchar
        </CharString>
        <CharString name="adieresis">
          -87 callgsubr
        </CharString>
        <CharString name="ae">
          31 callsubr
          69.97999572753906 401 -95 callsubr
        </CharString>
        <CharString name="aeacute">
          31 callsubr
          828.9900054931641 169 callgsubr
          85 280 callgsubr
          247 224 390 callgsubr
          224 callsubr
          -759 -910.9900054931641 -95 callsubr
        </CharString>
        <CharString name="agrave">
          0 callsubr
          327.99000549316406 75 callsubr
          82.99000549316406 -35 388 callsubr
          293 callsubr
          -288.00999450683594 432 -181 -164 rlineto
          410.99000549316406 -415.99000549316406 -102 callsubr
        </CharString>
        <CharString name="amacron">
          -80 209 callgsubr
          -52 callsubr
          251 182 13 callsubr
          hintmask 01111000
          471.97999572753906 408 callgsubr
          -18.990005493164062 -182 rlineto
          514 callsubr
          226 callsubr
          267 -432.99000549316406 -74 callsubr
          hintmask 10111000
          -100 callgsubr
          hintmask 01111000
          19 -59 -88 -27 callgsubr
          196 callgsubr
          -99 callsubr
        </CharString>
        <CharString name="ampersand">
          413 -28 126.97000122070312 -118.97000122070312 137.99000549316406 492.97999572753906 201 135 callgsubr
          196 605.010009765625 115 hstemhm
          -49 callgsubr
          283.99000549316406 4.9999847412109375 270 354 265.99000549316406 -48.97999572753906 231.99000549316406 128.00999450683594 104.72999572753906 hintmask 0000000000000000
          hintmask 1001110011000000
          474 callsubr
          781.9900054931641 rmoveto
          -185 vlineto
          19 29 60 18.990005493164062 64 hhcurveto
          12 11 0 -48 callgsubr
          11 hvcurveto
          71 callsubr
          -31 44 callgsubr
          -37 -41 vvcurveto
          -99 -22 -19 callgsubr
          -46.02000427246094 141 callgsubr
          vhcurveto
          -37 callgsubr
          10 -144 134 -104 135 -125.00999450683594 225 rlinecurve
          hintmask 1000101101000000
          239 116.02000427246094 260 110 473 callgsubr
          vvcurveto
          152 -110 141 -275.97999572753906 -287.00999450683594 -217 -163 -269 -104 302 callsubr
          -131.99000549316406 46 -105 vhcurveto
          hintmask 1000110101000000
          -198 149 callsubr
          -176 -107.99000549316406 -228 vvcurveto
          -251 255 -128.97999572753906 311.00999450683594 127 129 23 334 callsubr
          116 vhcurveto
          hintmask 0110110011000000
          187 callsubr
          197 callgsubr
          113 callsubr
          -20 131 callsubr
          hhcurveto
          101 63 6 24 75 hvcurveto
          5 108 -58 -4 -85 220 callgsubr
          -55 234 callgsubr
          rlinecurve
          -11.990005493164062 6 -16.020004272460938 -61 callsubr
          -17 12 rrcurveto
          111 98 71 70 callgsubr
          161.02000427246094 vvcurveto
          37 callgsubr
          -1 15.009994506835938 -1 323 callsubr
          vhcurveto
          -1 220 callgsubr
          36 callsubr
          0 14 hhcurveto
          159 58 172.02000427246094 185 -32 hvcurveto
          -96.99000549316406 hlineto
          -123 -19 -47 -32.99000549316406 99 callsubr
          64 callgsubr
          -59.99000549316406 19 -75 hhcurveto
          hintmask 1001110011000000
          -88 -49 170 callsubr
          -18 -18 hvcurveto
          hintmask 1000101101000000
          -311.99000549316406 106 rmoveto
          -32 71 -10 callsubr
          -94 callsubr
          111 vvcurveto
          151 64 118 353 callsubr
          109.02000427246094 -30 callsubr
          115 callgsubr
          175 callsubr
          -177 -129 -57 callgsubr
          258 callgsubr
          -78.99000549316406 vhcurveto
          206 -763 rmoveto
          -18 -65 -76 126 callgsubr
          -87 hhcurveto
          hintmask 1000110101000000
          -178.02000427246094 -139 95.00999450683594 184 116 64 82.99000549316406 95 69 hvcurveto
          hintmask 1000101101000000
          111 -187.99000549316406 92 -164 183 -169 rrcurveto
          endchar
        </CharString>
        <CharString name="aogonek">
          -80 160 callgsubr
          267 179 callsubr
          284.02000427246094 478 callsubr
          492 callgsubr
          738.9799957275391 1163 rmoveto
          -86 callsubr
          -72 callgsubr
          -65 30 -41 52 -17.979995727539062 rlinecurve
          477 callsubr
          -33 -65.99000549316406 -42 -61 -87 -72 callsubr
          106 callgsubr
          57 325 callsubr
          76 callsubr
          hhcurveto
          132.02000427246094 -45 callsubr
          -49 callgsubr
          -68 callsubr
          82 callsubr
          hvcurveto
          -31 105 rlineto
          -44 -56 303 callgsubr
          -24 -47 hhcurveto
          -10 callsubr
          170 callsubr
          18 60 2 hvcurveto
          1 69 108 callsubr
          198 callgsubr
          114.02000427246094 79.97000122070312 59 259 callgsubr
          41 354 callsubr
          11.979995727539062 244 callsubr
          -29.979995727539062 64 rcurveline
          -37 -47 -25.009994506835938 -37 callgsubr
          -19 hhcurveto
          -23 -18 22 54 6 hvcurveto
          130 954 -136.99000549316406 -39.02000427246094 rlineto
          19 -59 -88 -27 callgsubr
          196 callgsubr
          -99 callsubr
        </CharString>
        <CharString name="approxequal">
          -251 268.97999572753906 478 callsubr
          -41.97999572753906 202.99000549316406 76.00999450683594 478 callsubr
          240 callsubr
          202.99000549316406 hstemhm
          -50 callgsubr
          1001 hintmask 00000000
          hintmask 10011000
          69.97999572753906 874.9900054931641 rmoveto
          99 callgsubr
          -99 rlineto
          70 47 71 36 108 callgsubr
          121 62 -167 176 hhcurveto
          hintmask 10101000
          151 136.99000549316406 158 callgsubr
          108 29 hvcurveto
          -89 326 callsubr
          rlineto
          -70 -47 -59.99000549316406 -41 -89.00999450683594 -119 -64.99000549316406 160.99000549316406 -170 hhcurveto
          hintmask 10011000
          -151 -129 476 callgsubr
          55 callgsubr
          -32 hvcurveto
          hintmask 01101000
          -50 -446 rmoveto
          88 callgsubr
          -99 rlineto
          70 47 71 36 78 121 62 507 callgsubr
          176 hhcurveto
          hintmask 10101000
          151 137 114.02000427246094 -4 callgsubr
          29 hvcurveto
          -89 98 rlineto
          -70 -47 -60 -41 -88.99000549316406 116 callgsubr
          -65 161.02000427246094 -170 hhcurveto
          hintmask 01101000
          -151 -128.99000549316406 -114.02000427246094 -58 callsubr
          -32 hvcurveto
          endchar
        </CharString>
        <CharString name="aring">
          -80 209 callgsubr
          -52 callsubr
          90 440 callgsubr
          13 callsubr
          103.99000549316406 210 callgsubr
          319.99998474121094 169 hintmask 01111111
          457.99000549316406 437 callgsubr
          508 callgsubr
          471 callgsubr
          -174 -157 -213 150 callsubr
          -225 vhcurveto
          490.99000549316406 47 rmoveto
          -133 474 callgsubr
          -35 -88 -76 -68.02000427246094 62 80 124 515 callgsubr
          42 87 108 callgsubr
          64 -58 -82 vhcurveto
          -210 -376 -74 callsubr
          hintmask 10111111
          -100 callgsubr
          hintmask 01111111
          19 -59 -88 -27 callgsubr
          196 callgsubr
          -99 callsubr
        </CharString>
        <CharString name="arrowdown">
          360 callgsubr
          868.9900054931641 rmoveto
          -378 -378 34 187 rlineto
          769 -213 -769 vlineto
          259 callgsubr
          -187 -377 378 -139.02000427246094 -135.99000549316406 589 -590 590 590 -139 54 callgsubr
          rlineto
          endchar
        </CharString>
        <CharString name="arrowleft">
          359 callsubr
          838.9799957275391 1216.979995727539 rmoveto
          -135.99000549316406 139 -590.0099945068359 480 callgsubr
          590.0099945068359 -589 54 callgsubr
          139 -379 378 188 -34 rlineto
          768 hlineto
          1 213 rlineto
          -769 hlineto
          -188 -34 379 378 rlineto
          endchar
        </CharString>
        <CharString name="arrowright">
          359 callsubr
          691 1216.979995727539 rmoveto
          379 -378 -188 34 rlineto
          -769 hlineto
          1 -213 rlineto
          768 hlineto
          188 34 -379 -378 54 callgsubr
          -139 590.0099945068359 589 -590.0099945068359 589.9900054931641 -135.99000549316406 -139 rlineto
          endchar
        </CharString>
        <CharString name="arrowup">
          360 callgsubr
          721 rmoveto
          139 54 callgsubr
          -590 590 -589 -590 139.02000427246094 -135.99000549316406 377 378 174 callsubr
          -187 rlineto
          -769 213 769 vlineto
          -34 187 378 -378 rlineto
          endchar
        </CharString>
        <CharString name="asciicircum">
          86 412.99000549316406 1117.979995727539 hstem
          184.99000549316406 992.9900054931641 vstem
          576.9799957275391 1530.979995727539 rmoveto
          -391.99000549316406 -1117.990005493164 rlineto
          210.99000549316406 hlineto
          284.02000427246094 795 285 -795 rlineto
          391 callsubr
          hlineto
          -397 1117.990005493164 rlineto
          -204 hlineto
          endchar
        </CharString>
        <CharString name="asciitilde">
          -140 704 478 callsubr
          -42 202.99000549316406 hstemhm
          127 950.9799957275391 hintmask 00000000
          hintmask 01100000
          127 512 callgsubr
          rmoveto
          88 callgsubr
          -99 rlineto
          70 47 71 36 108 callgsubr
          387 callgsubr
          62 -166.99000549316406 176 hhcurveto
          hintmask 10100000
          151 137 158 callgsubr
          -4 callgsubr
          29 hvcurveto
          -88.99000549316406 326 callsubr
          rlineto
          -70 -47 -60 -41 -89 -118.99000549316406 -65 161 -170 hhcurveto
          hintmask 01100000
          -151 -129 476 callgsubr
          -96.02000427246094 -10 callsubr
          hvcurveto
          endchar
        </CharString>
        <CharString name="asterisk">
          89 635.9799957275391 1028.009994506836 hstem
          506 callsubr
          1039.009994506836 vstem
          506 callsubr
          988 rmoveto
          88 -190.02000427246094 232 callsubr
          211 68 56 -24 -81 -80 -347 226 -1 -7 346.00999450683594 -8 86 59 -57 255 -211 129 187 -309 135 -76.99000549316406 -9 callgsubr
          53 callgsubr
          28 457 callgsubr
          135 -88 190 -300.99000549316406 273 callsubr
          -68.02000427246094 -54 23 80 81 389 callgsubr
          -226 1 7 -346.00999450683594 8 369 callgsubr
          -59 55 -254.02000427246094 211 332 callgsubr
          -187 309.97999572753906 -136 76 -72 callsubr
          -19 callgsubr
          218 callsubr
          -334 -134.97999572753906 rlineto
          endchar
        </CharString>
        <CharString name="at">
          692 -433 153 283.99000549316406 -27 callsubr
          -162.00001525878906 194 764.010009765625 388 callgsubr
          303.00999450683594 152 hstemhm
          53 callgsubr
          190.99000549316406 231.00999450683594 219.99000549316406 442.00999450683594 148 callgsubr
          347.00999450683594 177.99000549316406 hintmask 1101111110000000
          1196.990005493164 1560.990005493164 rmoveto
          -561 -552 -490.99000549316406 -734 -528.9900054931641 346.00999450683594 -240 461.99000549316406 173 155 47 70 93 hvcurveto
          -38 98 rlineto
          -10 callsubr
          -65.99000549316406 -172.02000427246094 -30 476 callgsubr
          hhcurveto
          -362 -286 196 258 callsubr
          488.02000427246094 311.00999450683594 512.9799957275391 523 296 310.00999450683594 355 callgsubr
          -425 -312.00999450683594 -156 -349 -168.02000427246094 -10 -11 208 callsubr
          107 callsubr
          -2 hvcurveto
          -79 callgsubr
          39 -4.0200042724609375 52.02000427246094 10.020004272460938 103 18.990005493164062 200.99000549316406 51.02000427246094 317.00999450683594 39 153 -187 -42 rcurveline
          210 callsubr
          -55.99000549316406 -101.00999450683594 21 -54.99000549316406 hhcurveto
          -382.00999450683594 -193.99000549316406 -361 -307 hvcurveto
          hintmask 1011111110000000
          -297 -37 callsubr
          -134 152 148 151 224 213 108 callsubr
          vhcurveto
          hintmask 1101111110000000
          -59 callgsubr
          -91 -12 -98 -47 vvcurveto
          -119 18.990005493164062 -85 -12 callgsubr
          293.00999450683594 116 callsubr
          342 565 422 callgsubr
          -287 245 -408.99000549316406 vhcurveto
          hintmask 1011111110000000
          -347.00999450683594 -1360 rmoveto
          175 callsubr
          -34 128 118 239 108 callsubr
          279 247 56 -12 callgsubr
          -36 -48 -9 callgsubr
          hvcurveto
          -215 135 callsubr
          -237.02000427246094 -465 -122 hhcurveto
          endchar
        </CharString>
        <CharString name="atilde">
          -80 209 callgsubr
          -52 callsubr
          168.010009765625 -20 callgsubr
          69.97999572753906 284.02000427246094 hintmask 00000000
          hintmask 01101100
          383 22 callgsubr
          -13 callsubr
          -48 callgsubr
          rlinecurve
          hintmask 01110100
          -3 116 1 132 callgsubr
          171 370 callsubr
          109.02000427246094 166 callgsubr
          -60 callgsubr
          hhcurveto
          hintmask 01101100
          264 callsubr
          hintmask 01110100
          355.97999572753906 -334.99000549316406 -74 callsubr
          hintmask 10110100
          -100 callgsubr
          hintmask 01110100
          19 -59 -88 -27 callgsubr
          196 callgsubr
          -99 callsubr
        </CharString>
        <CharString name="b">
          235 callgsubr
          93 callsubr
          43 rlineto
          -20 325 callgsubr
          -42 callsubr
          -23 83 -2 callgsubr
        </CharString>
        <CharString name="backslash">
          -423 -362 1958.990005493164 hstem
          69.97999572753906 781 vstem
          645.9799957275391 -362 rmoveto
          205 hlineto
          -577 1958.990005493164 rlineto
          -204 hlineto
          576 -1958.990005493164 rlineto
          endchar
        </CharString>
        <CharString name="bar">
          287 callsubr
          -1965.990005493164 194.99000549316406 1965.990005493164 389 callsubr
          vlineto
          endchar
        </CharString>
        <CharString name="braceleft">
          -244 -210 353 callsubr
          1655.989990234375 446 callsubr
          185 callsubr
          896 vstem
          243 callgsubr
          578.9900054931641 rmoveto
          0 -90.99000549316406 -616.9799957275391 -1 -29 vhcurveto
          -110.02000427246094 -1 89 -33 -24 callsubr
          hhcurveto
          110 243 callsubr
          21 26 240 callgsubr
          hvcurveto
          0 11 93 3 15 vhcurveto
          -275 hlineto
          95 630 6 41 504 callsubr
          36.99000549316406 373 callgsubr
          31.009994506835938 rlinecurve
          -29 30 -54 114 callsubr
          -59 31 rrcurveto
          0 116 53 29 17 vhcurveto
          53 33 37 37 -30 callgsubr
          54 -4 callsubr
          630.9900054931641 rcurveline
          275.97999572753906 hlineto
          1 19 16 85 0 vvcurveto
          0 -170.99000549316406 47 -89 -157 -92 170 callgsubr
          -198 -31 vhcurveto
          -81 -534.0200042724609 -4 -23 -25 -21 -36 -19 rlinecurve
          -52 135 callsubr
          -75 -22 -65 -16.020004272460938 -18 -123.99000549316406 rcurveline
          59 -14 63 -25.009994506835938 43 -29 rrcurveto
          32.02000427246094 -21 -50 callgsubr
          -24 -22 vvcurveto
          endchar
        </CharString>
        <CharString name="braceright">
          -244 -206 274 callgsubr
          1655.989990234375 155 hstem
          133 callsubr
          896 vstem
          711.9900054931641 966.9799957275391 rmoveto
          0 240 callgsubr
          617 1 29 vhcurveto
          110 1 -89 259 callgsubr
          110 callgsubr
          hhcurveto
          -110 -74 -21.020004272460938 -72 callsubr
          394 callgsubr
          hvcurveto
          0 -11 -93 -72 callgsubr
          41 callgsubr
          vhcurveto
          513 callgsubr
          hlineto
          -94.99000549316406 -629.9900054931641 -6 -41 17 -37 30 -31 rlinecurve
          29 -29.979995727539062 262 callgsubr
          170 callsubr
          59 -31 rrcurveto
          0 -116 -53 -29 -17 vhcurveto
          -53 -33 87 callsubr
          -37 -8 170 callgsubr
          55 callgsubr
          -631 rcurveline
          -275.99000549316406 hlineto
          -1 -18.990005493164062 -16 303 callsubr
          0 vvcurveto
          0 210 callgsubr
          -47 89 157 92 54 198 31 vhcurveto
          81 534 4 23 25 61 callsubr
          36 244 callsubr
          rlinecurve
          52 -9 callgsubr
          75 22.020004272460938 65 16 18 124.00999450683594 rcurveline
          -59 36 callsubr
          -63 25 -43 29 rrcurveto
          -10 callsubr
          21 -76 callgsubr
          24 22 vvcurveto
          endchar
        </CharString>
</ttFont>
